<?xml version="1.0" encoding="UTF-8" standalone="no"?>
<!-- Created with Inkscape (http://www.inkscape.org/) -->

<svg
   xmlns:dc="http://purl.org/dc/elements/1.1/"
   xmlns:cc="http://creativecommons.org/ns#"
   xmlns:rdf="http://www.w3.org/1999/02/22-rdf-syntax-ns#"
   xmlns:svg="http://www.w3.org/2000/svg"
   xmlns="http://www.w3.org/2000/svg"
   xmlns:sodipodi="http://sodipodi.sourceforge.net/DTD/sodipodi-0.dtd"
   xmlns:inkscape="http://www.inkscape.org/namespaces/inkscape"
   width="212.6116"
   height="212.6116"
   id="svg3067"
   version="1.1"
   inkscape:version="0.91 r13725"
   sodipodi:docname="becasse.svg"
   inkscape:export-filename="/home/huguette/creations/web/blog/themes/cactus-dark/source/images/favicon-192x192.png"
   inkscape:export-xdpi="76.195274"
   inkscape:export-ydpi="76.195274">
  <defs
     id="defs3069" />
  <sodipodi:namedview
     id="base"
     pagecolor="#2b3c00"
     bordercolor="#666666"
     borderopacity="1.0"
     inkscape:pageopacity="0"
     inkscape:pageshadow="2"
     inkscape:zoom="0.98994949"
     inkscape:cx="-255.83411"
     inkscape:cy="66.498817"
     inkscape:document-units="px"
     inkscape:current-layer="layer1"
     showgrid="false"
     fit-margin-top="0"
     fit-margin-left="0"
     fit-margin-right="0"
     fit-margin-bottom="0"
     inkscape:window-width="1468"
     inkscape:window-height="825"
     inkscape:window-x="120"
     inkscape:window-y="222"
     inkscape:window-maximized="0"
     showborder="false" />
  <metadata
     id="metadata3072">
    <rdf:RDF>
      <cc:Work
         rdf:about="">
        <dc:format>image/svg+xml</dc:format>
        <dc:type
           rdf:resource="http://purl.org/dc/dcmitype/StillImage" />
        <dc:title />
      </cc:Work>
    </rdf:RDF>
  </metadata>
  <g
     inkscape:label="Layer 1"
     inkscape:groupmode="layer"
     id="layer1"
     transform="translate(-250.24408,-481.13635)">
    <rect
       style="fill:none"
       id="rect3171"
       width="212.6116"
       height="212.6116"
       x="250.24408"
       y="481.13635"
       inkscape:export-xdpi="126.99213"
       inkscape:export-ydpi="126.99213" />
    <path
       style="fill:#f9f9f9;fill-opacity:1"
       id="path3057"
       d="m 342.03583,629.05967 c -1.25858,-0.77711 1.071,-0.15592 1.12055,-0.18608 0.75106,-0.4572 -2.23419,-0.57106 0.13555,-0.37937 0.93677,-0.54391 -0.97987,0.5121 0.88109,-0.13154 0.076,-0.0263 -0.0464,-0.2042 0.0257,-0.23991 0.21246,-0.10529 1.35009,-0.13885 1.62721,-0.16442 -0.14479,-0.7572 -0.0949,0.036 0.96873,-0.18491 0.10824,-0.0225 -0.0298,-0.21909 -0.0447,-0.32864 0.0782,-0.0699 0.13097,-0.19293 0.23448,-0.20966 1.10934,-0.17932 0.65645,0.35095 1.03546,-0.22901 0.42084,-0.40167 1.11732,-0.13301 1.58015,-0.37231 0.0945,-0.0489 0.0282,-0.24383 0.1214,-0.29521 0.32977,-0.18184 0.73949,-0.15341 1.09538,-0.2765 0.79459,-0.46958 1.71657,-0.73525 2.49771,-1.2478 0.26202,-0.41343 1.01997,-0.3538 1.32123,-0.6623 0.0891,-0.0912 -0.0728,-0.3463 0.0504,-0.37914 0.38219,-0.10188 0.82304,0.20783 1.18558,0.0497 0.15885,-0.0693 -0.12731,-0.32239 -0.19097,-0.48359 2.02234,-0.2203 0.26105,0.22016 1.00947,-0.45023 0.28779,-0.25778 0.97379,-0.0728 1.06936,-0.44718 0.0561,-0.21979 -0.51842,-0.40925 -0.36373,-0.57515 0.21932,-0.23522 0.64165,-0.0447 0.96248,-0.067 0.66316,0.0952 0.2252,-0.5436 0.45024,-0.71114 0.20087,-0.14955 0.49966,-0.0781 0.73062,-0.17491 0.40644,-0.17029 0.72146,-0.64742 0.98073,-0.97919 3.6931,-0.34236 -0.61696,0.34995 0.59337,-0.68964 0.28769,-0.2471 0.79827,0.12959 1.13699,-0.041 0.14761,-0.0743 -0.1628,-0.34199 -0.0859,-0.48831 0.61867,-0.35436 0.41359,-0.10848 0.67015,-0.68814 0.6195,-0.82928 1.74492,-1.02447 2.08012,-2.10267 0.0113,-0.15934 -0.11104,-0.41077 0.0339,-0.47801 0.35041,-0.16261 0.80067,0.076 1.15651,-0.0744 0.19397,-0.082 0.0779,-0.88466 0.13176,-0.97254 0.21099,-0.34425 0.66356,-0.46047 0.98783,-0.70106 0.0511,-0.15783 0.1022,-0.31567 0.1533,-0.4735 0.15526,-0.11873 0.39068,-0.17573 0.46578,-0.35617 0.0714,-0.17165 -0.22867,-0.42875 -0.0883,-0.55071 0.24456,-0.21257 0.70664,0.0129 0.9514,-0.19944 0.14076,-0.12211 -0.10555,-0.36744 -0.0846,-0.55259 0.0188,-0.16597 0.13293,-0.30648 0.1994,-0.45972 1.80812,-0.89067 -0.18199,0.2862 0.73595,-0.78504 0.14443,-0.16856 0.46362,-0.1406 0.57791,-0.3309 0.0934,-0.15557 -0.12462,-0.37461 -0.0539,-0.54171 0.0257,-0.0607 0.88512,-0.71878 0.91878,-0.74498 0.189,-0.11157 0.46696,-0.13936 0.567,-0.33471 0.19333,-0.37754 -0.6401,-0.852 -0.40627,-1.20589 0.42739,-0.64682 1.04075,0.33975 1.5053,-1.09645 -0.63025,-1.40352 0.87923,-0.56586 1.19482,-1.24237 0.10248,-0.21967 -0.32241,-0.41184 -0.31753,-0.65419 0.004,-0.19184 0.23862,-0.30159 0.34007,-0.46446 0.0988,-0.15866 0.17268,-0.33157 0.25903,-0.49736 0.32997,-0.3196 -0.0883,-0.83228 0.1189,-1.16189 0.13433,-0.21369 0.48684,-0.20891 0.63409,-0.41392 0.44727,-0.62272 -0.30724,-0.679 0.87424,-1.60715 -0.001,-0.21282 0.009,-0.42602 -0.003,-0.63846 -0.0133,-0.22223 -0.13512,-0.44946 -0.0746,-0.66371 0.1177,-0.41669 0.82917,-0.5708 0.82452,-1.00377 -0.0145,-1.35107 -1.16833,-0.28189 0.22365,-1.19474 0.23027,-1.09948 0.41228,-2.66054 1.02108,-3.57584 -0.54774,-2.29397 0.0191,0.80071 0.18035,-1.19243 0.22864,-2.8266 -0.68815,1.31701 -0.34379,-1.25704 0.18105,-1.35323 0.45107,0.37405 0.11255,-1.09364 0.2727,-1.00381 0.12053,0.003 -0.15858,-1.09949 -0.16553,-0.654 0.19103,-0.36336 0.0721,-1.01437 -0.31733,-0.71071 -0.2212,-0.35327 -0.31368,-1.06521 -0.11854,-1.48264 0.0958,0.51347 -0.26735,-1.04529 -0.0365,-0.15691 0.0566,-0.33657 -0.0101,-0.48323 -0.10104,-0.22223 -0.45474,-0.32082 -0.46639,-0.56466 -0.0578,-1.20983 1.54101,0.76367 -0.14154,-0.91896 0.46031,-0.72516 -0.61592,-0.8562 -0.6913,-1.42615 -0.0201,-0.15168 0.37925,-0.16897 0.33378,-0.31505 -0.08,-0.25694 -0.4262,-0.33468 -0.6,-0.54012 -0.10274,-0.12145 -0.14443,-0.28348 -0.21664,-0.42522 0.0919,-0.10972 0.33964,-0.20108 0.27575,-0.32916 -0.12955,-0.25971 -0.51388,-0.29561 -0.69892,-0.51919 -0.0797,-0.0963 0.0394,-0.27589 -0.0394,-0.37293 -0.17092,-0.21055 -0.52209,-0.24614 -0.65503,-0.48251 -0.0583,-0.10368 0.15354,-0.18175 0.23031,-0.27262 -0.29836,-0.18235 -0.59672,-0.36471 -0.89508,-0.54706 -0.39093,-0.11999 -0.09,-0.53312 -0.25554,-0.73128 -0.16571,-0.19835 -0.45607,-0.26118 -0.62928,-0.45302 -0.083,-0.0919 -0.007,-0.27745 -0.10222,-0.35718 -1.75813,-1.47948 -0.36209,0.20757 -1.20528,-0.87509 -0.97048,-0.92452 -2.01207,-1.73796 -3.25132,-2.28645 -0.43023,-0.64117 -1.31047,-0.74714 -1.8611,-1.21759 -0.0491,-0.0419 0.0566,-0.16347 -4.1e-4,-0.19361 -0.31248,-0.165 -0.67,-0.22486 -1.005,-0.33729 -0.31858,-0.10297 -0.64597,-0.18188 -0.95576,-0.3089 -0.0481,-0.0197 -0.68698,-0.43739 -0.74906,-0.46807 -0.52228,-0.25806 -1.09173,-0.3631 -1.5883,-0.66911 1.06732,0.1871 -2.76867,-0.88378 -1.76388,-0.5677 7.82331,2.46102 5.61001,1.75079 3.67921,1.18584 -1.30857,-0.43933 -2.63949,-0.68221 -3.9829,-1.11409 -0.86292,0.0215 0.44282,0.0214 -1.24297,-0.25885 -0.076,-0.0126 -0.14511,0.0517 -0.21767,0.0775 -0.12614,0.003 -0.25474,0.0354 -0.37843,0.0104 -0.64498,-0.13052 -1.26944,-0.34905 -1.91112,-0.49496 -0.98431,0.0679 -2.18692,-0.2405 -3.12529,0.0453 -0.35606,0.10782 -1.72897,-0.12612 -1.97318,0.0501 -0.1076,0.0776 0.22897,0.30177 0.12119,0.37915 -0.18912,0.13577 -0.46547,0.0165 -0.69757,0.0346 -0.21945,0.0171 -0.43768,0.0474 -0.65651,0.0711 -0.17009,0.0455 -0.34017,0.091 -0.51026,0.13649 -0.0894,0.0824 -0.15613,0.19989 -0.26808,0.24731 -0.64175,0.27182 -1.40571,0.0764 -1.55021,0.91722 -1.39866,-0.27366 -1.13478,0.64969 -1.85124,0.9154 -1.02959,0.38184 -0.57042,-0.22204 -0.96506,0.48635 -0.22598,0.0597 -0.47714,0.0593 -0.67793,0.17896 -0.12193,0.0726 -0.12946,0.25714 -0.22706,0.36016 -0.21674,0.22879 -0.43971,0.45953 -0.70428,0.63076 -0.79411,0.51397 -0.43053,-0.11011 -0.73177,0.62773 -0.005,0.003 -1.05555,0.51702 -1.06122,0.54159 -0.0875,0.3792 0.71262,0.62497 0.18108,1.03981 -0.20455,0.15964 -0.49981,0.14377 -0.73943,0.24335 -0.19802,0.0823 -0.37927,0.20025 -0.5689,0.30037 0.0599,0.18969 0.31025,0.41899 0.17969,0.56907 -0.19686,0.2263 -0.62839,0.0494 -0.87107,0.2257 -0.30959,0.22489 0.0192,0.82766 -0.0761,1.05876 -0.0146,0.0353 -0.87639,0.78145 -0.90212,0.8039 -0.81111,0.2216 -0.55036,0.82849 -0.99779,1.34602 -0.13816,0.1598 -0.36226,0.23156 -0.49461,0.3962 -0.2258,0.2809 -0.30129,0.655 -0.46402,0.97657 -0.26993,0.40504 -0.0945,1.18129 -0.3747,1.56108 -0.56959,0.77209 -1.15398,0.10478 -1.02881,1.38931 0.22261,0.82715 -1.04252,0.34875 -1.10177,0.79841 -0.0473,0.35864 0.6823,0.45181 0.7205,0.81152 0.0252,0.23731 -0.4287,0.22885 -0.59148,0.40337 -0.46414,0.49761 -0.19868,0.62716 0.0452,1.17983 -0.18045,0.13229 -0.88827,0.56142 -0.90604,0.89511 -0.0132,0.24702 0.29904,0.43884 0.28373,0.68573 -0.001,0.0181 -0.80705,1.33013 -0.88694,1.52391 -0.29034,1.10597 -0.80593,2.17345 -0.91243,3.31299 0.19768,0.57568 -0.60026,0.6056 -0.67235,1.00104 -0.0435,0.23874 0.32492,0.44489 0.26199,0.67927 -0.0611,0.22744 -0.4185,0.24248 -0.56005,0.4307 -0.1475,0.19613 -0.23556,0.89533 -0.27289,1.11905 -0.0981,0.16879 -0.25041,0.31613 -0.29425,0.50636 -0.18062,0.78383 0.30479,0.43181 -0.1102,1.16948 -0.0858,0.15247 -0.76008,0.70759 -0.73511,0.96397 0.0273,0.28025 0.28455,0.48597 0.42682,0.72896 -1.37396,0.6071 -0.0516,0.99847 -0.28193,1.66703 -0.32386,0.94013 -1.52908,-0.34167 -1.11792,1.35092 -0.12107,0.1037 -0.80935,0.65527 -0.87021,0.84984 -0.002,0.006 0.13997,1.16945 0.13822,1.17132 -0.83792,0.89389 -1.25541,-0.44626 -0.52781,0.94901 -0.20585,0.11646 -0.49022,0.15008 -0.61754,0.34939 -0.10354,0.16208 0.0625,0.38752 0.0262,0.57638 -0.0418,0.2174 -0.70893,1.29044 -0.86648,1.4335 -0.18304,0.1662 -0.43358,0.23771 -0.65038,0.35656 0.41232,1.35489 0.2109,-0.0309 -0.40501,0.9897 -0.0974,0.16132 0.1122,0.39247 0.0346,0.56418 -0.0797,0.17642 -1.20925,0.86708 -1.48939,1.14104 -0.0112,0.0249 -0.41114,0.90621 -0.41328,0.93434 -0.0485,0.63553 0.48384,0.56914 -0.31416,0.95523 -0.26171,0.12661 -0.64309,0.0212 -0.83985,0.23525 -0.12759,0.1388 0.0762,0.36929 0.11436,0.55393 -0.69537,0.94192 0.21556,-0.13435 -1.0061,0.66808 -0.28126,0.18473 -0.36705,0.57773 -0.62756,0.79072 -0.16089,0.13155 -0.40566,0.1557 -0.53703,0.31675 -0.10004,0.12264 -0.0667,0.30944 -0.1,0.46415 -0.031,0.81291 -1.70946,1.30386 -1.93666,1.79376 -0.0737,0.15894 0.029,0.34919 0.0434,0.52379 -0.31092,0.36701 -0.89294,0.25766 -1.2343,0.55193 -0.11909,0.10267 -0.0504,0.32496 -0.14882,0.44761 -0.50214,0.62605 -0.98927,0.0779 -1.1773,1.03299 -0.28999,0.0563 -0.60111,0.0464 -0.86996,0.16882 -0.29717,0.13529 -0.40661,0.52067 -0.66772,0.71671 -0.42455,0.31875 -0.8416,0.62845 -1.26891,0.95152 -0.009,0.8047 0.15013,0.33901 -0.81421,0.63465 -0.1912,0.0586 -0.35515,0.18754 -0.54448,0.25191 -0.23964,0.0815 -0.58222,-0.0167 -0.73678,0.18373 -0.69859,0.90595 2.41027,0.50801 -0.96017,0.54701 -0.0847,0.44652 -0.61642,0.33097 -0.83733,0.59176 -0.0933,0.11017 0.0649,0.33547 -0.0434,0.43097 -0.17383,0.15331 -0.46163,0.0887 -0.66722,0.19569 -0.13681,0.0712 -0.19177,0.25659 -0.33066,0.32367 -0.21604,0.10434 -0.46571,0.1156 -0.69857,0.17341 -10e-4,0.1499 0.10937,0.35103 -0.003,0.44972 -0.18434,0.16121 -0.48416,0.0898 -0.71304,0.1769 -0.42992,-0.0381 -0.48808,0.4824 -0.79948,0.60213 -1.27439,0.48998 -0.54091,-0.27759 -1.13839,0.48508 -0.41285,0.3326 -1.77269,0.25435 -2.13763,0.51523 -0.12103,0.0865 0.0893,0.35157 -0.026,0.44557 -0.18979,0.15472 -0.48397,0.0846 -0.71694,0.16002 -0.17794,0.0576 -0.33917,0.15775 -0.50876,0.23663 -0.3558,-7.6e-4 -0.72272,-0.0906 -1.0674,-0.002 -0.13071,0.0335 -0.10437,0.2812 -0.22848,0.33417 -0.24687,0.10536 -0.55236,-0.003 -0.79848,0.10413 -0.12388,0.0539 -0.10915,0.26411 -0.22117,0.33964 -0.29957,0.20199 -0.67888,0.25701 -0.99112,0.4388 -0.62701,-0.0327 -1.54513,-0.0669 -2.11379,0.34467 -0.10021,0.0725 -0.0648,0.29721 -0.18625,0.32102 -1.29392,-0.0833 -0.73685,-0.1529 -1.68288,0.0669 -0.39977,0.28403 -0.93993,-0.0109 -1.34822,0.18695 -0.10593,0.0513 0.0374,0.31865 -0.0775,0.34451 -0.34735,0.0782 -0.7086,-0.094 -1.06459,-0.0873 -0.45441,0.009 -0.90124,0.13063 -1.3554,0.14831 -1.42123,0.32084 -2.83688,0.45269 -4.2871,0.33083 -0.69634,0.30283 -1.47398,0.0666 -2.18523,0.17378 -0.14458,0.0218 -0.24727,0.16643 -0.38884,0.20298 -0.66167,0.17081 -1.18616,0.003 -1.8711,-0.0904 -0.75958,0.36594 -1.31294,0.15553 -2.13094,0.14169 -0.54026,-0.009 -1.17847,0.21862 -1.71256,0.30487 -0.45106,-0.0687 -1.51862,-0.27754 -2.04998,-0.21455 -0.13884,0.0165 -0.24045,0.16321 -0.37939,0.17886 -0.62275,0.0701 -1.84901,0.009 -2.45074,-0.0621 -0.73103,0.1161 -1.55581,-0.12157 -2.27943,10e-4 -0.11592,0.0196 -0.16393,0.20567 -0.28128,0.21278 -1.25454,-0.15861 -0.69645,-0.16354 -1.67261,-0.0766 -0.87898,-0.25887 -1.26811,-0.0736 -2.06871,0.0755 -0.15872,0.0296 -0.30741,0.13377 -0.4685,0.12294 -0.43094,-0.029 -0.84178,-0.25846 -1.27329,-0.24008 -0.1024,0.004 -0.0515,0.1984 -0.0773,0.2976 -0.11077,-0.0182 -1.90423,-0.32727 -2.12494,-0.31318 -0.0915,0.006 -0.10093,0.19396 -0.19261,0.19648 -0.31319,0.009 -0.61195,-0.17036 -0.92522,-0.16565 -0.0662,9.9e-4 -0.0547,0.12053 -0.0821,0.1808 -0.22192,-0.0382 -0.44384,-0.0763 -0.66576,-0.1145 -0.11821,-0.002 -0.23642,-0.004 -0.35464,-0.006 0.0265,0.0531 0.13874,0.15945 0.0794,0.15939 -0.19665,-2e-4 -0.37127,-0.15514 -0.56785,-0.15989 -0.0793,-0.002 0.26289,0.16056 0.18421,0.15062 -0.20306,-0.0257 -0.81919,-0.34054 -0.35649,-0.10979 0.53014,-1.63001 -0.11879,-0.30859 0.41542,-0.59701 0.0519,-0.0281 -0.1165,-0.0211 -0.17276,-0.039 -1.67124,-0.53123 -3.34635,-1.05092 -5.00911,-1.60817 -0.0554,-0.0186 -0.19091,-0.11273 -0.13249,-0.11497 0.12938,-0.005 0.24917,0.0705 0.37375,0.10575 0.71545,0.27374 1.4239,0.46875 2.17629,0.59435 0.21689,0.0617 0.42617,0.16392 0.65066,0.18523 0.0855,0.008 -0.11589,-0.24464 0.0768,-0.19669 0.36749,0.0915 1.49775,0.41111 1.88172,0.53286 0.97047,0.13018 1.8877,0.25735 2.84615,0.54666 8.1e-4,-0.0452 -0.042,-0.14414 0.002,-0.13562 0.31707,0.0608 0.60427,0.23149 0.91692,0.31197 0.56064,0.1443 1.19137,0.20078 1.77813,0.31067 1.07941,0.32004 2.18657,0.47352 3.27256,0.77883 1.0808,0.27354 2.21393,0.43152 3.332,0.76081 1.04189,0.0332 2.01342,0.46555 3.0536,0.57536 0.53734,0.006 0.99078,0.37999 1.51253,0.43264 0.10644,0.0108 -0.3068,-0.2595 -0.20016,-0.25089 0.78177,0.0632 1.51291,0.5576 2.31027,0.64219 0.8181,0.16677 1.65311,0.45335 2.48884,0.5101 0.0545,0.004 0.0816,-0.10719 0.13449,-0.0935 0.44853,0.11636 0.87268,0.31197 1.30902,0.46796 1.16115,0.0491 2.25462,0.30822 3.38104,0.58094 0.71664,0.0412 1.39468,0.36105 2.09523,0.45776 0.05,0.007 -0.0164,-0.15765 0.0331,-0.14783 0.67366,0.1336 1.30825,0.42162 1.97412,0.5898 -0.0197,-0.0724 -0.13328,-0.22809 -0.059,-0.21722 0.41003,0.06 0.77872,0.2913 1.18313,0.38172 0.0707,0.0158 0.13453,-0.0868 0.20529,-0.0713 0.48064,0.10551 2.00515,0.52971 2.50234,0.68457 1.24623,0.21409 2.47455,0.49595 3.71711,0.75336 0.708,0.0598 1.35004,0.31607 2.03497,0.47426 0.1153,0.0266 0.24098,-0.0243 0.35494,0.008 1.5889,0.44464 0.71326,0.44842 1.46594,0.41668 1.3683,0.44556 2.76326,0.74953 4.14333,1.17009 3.0133,0.76491 5.94113,1.83058 8.90544,2.76479 1.13182,0.35213 2.24177,0.76611 3.32722,1.25111 1.28423,0.46994 2.4945,0.91701 3.76365,1.41489 0.39844,-0.14032 0.21206,0.27936 0.36186,0.36005 0.54332,0.29267 1.17947,0.36904 1.74999,0.60431 0.30095,0.12411 0.56664,0.32201 0.86132,0.46036 0.0448,0.0671 0.0604,0.16908 0.1344,0.20118 0.75345,0.3269 1.02569,0.17534 1.57094,0.61111 0.1214,0.097 0.0633,0.35202 0.20324,0.41957 0.37533,0.18115 0.79245,0.2584 1.18868,0.3876 0.0327,0.024 0.63256,0.44937 0.67566,0.5335 0.034,0.0664 -0.11397,0.17564 -0.0523,0.21757 0.29073,0.19763 0.65964,0.24769 0.97251,0.40796 0.35753,0.18314 0.66461,0.45222 1.00944,0.65828 0.18973,0.12271 0.39594,0.22309 0.56919,0.36814 0.41696,0.34911 0.76522,0.75822 1.23681,1.06948 0.22106,0.1459 0.48695,0.2258 0.68681,0.39961 0.0887,0.0772 0.0955,0.21485 0.14331,0.32227 0.8656,0.1146 0.63513,0.66363 1.06653,1.08561 0.18776,0.18366 0.47728,0.24671 0.6514,0.44336 0.0766,0.0865 0.0302,0.22903 0.0454,0.34355 0.23967,0.16014 0.47935,0.32029 0.71902,0.48044 -0.004,0.3998 0.60373,0.76603 0.53452,1.16392 -0.0224,0.12892 -0.30554,0.16699 -0.26357,0.29094 0.41108,1.21418 0.70299,-0.0663 0.41731,0.83308 0.35832,0.78813 0.18896,1.55269 0.17723,2.35816 -0.84624,0.0953 -0.10475,1.07071 -0.50633,1.40685 -0.64911,0.54333 -0.65437,-0.21717 -0.49682,0.60351 -1.47179,0.44112 0.0269,-0.13055 -0.79128,0.46129 -0.13284,0.0961 -0.32035,0.0968 -0.45132,0.19545 -0.43958,0.33096 0.11116,0.31098 -0.53966,0.48803 -0.19232,0.0523 -0.39681,0.038 -0.59521,0.057 -0.29527,0.42124 0.0246,0.0876 -0.7998,0.12097 -0.56421,0.0229 0.46116,0.25524 -0.28784,0.15345 -0.44419,-0.0604 -0.86861,-0.37385 0.0319,0.16654 8.10473,-8.90887 -5.21751,-0.36449 -6.118,-2.3556 -0.005,-0.0118 0.46977,-0.35271 0.4621,-0.36541 -0.32661,-0.54046 -0.97893,-0.25607 -0.20325,-0.4762 0.0297,-0.42995 -0.0639,-0.15226 0.54788,-0.25893 0.51251,-0.0894 0.12097,-0.0788 0.48207,-0.24722 0.10612,-0.0495 0.31962,0.0122 0.33563,-0.10375 0.0204,-0.14765 -0.18155,-0.23644 -0.27233,-0.35467 0.29271,0.0308 0.61051,0.21481 0.87811,0.0923 0.14058,-0.0644 -0.33543,-0.21277 -0.29131,-0.36095 0.0418,-0.14044 0.29786,-0.0323 0.4283,-0.0991 0.0817,-0.0418 0.0882,-0.18767 0.17702,-0.21078 0.7592,-0.19758 0.72611,0.2961 0.63684,-0.32186 0.17383,-0.0229 0.34765,-0.0459 0.52148,-0.0688 0.0885,-0.0641 0.15728,-0.1772 0.26551,-0.19236 0.28006,-0.0392 0.56995,0.0901 0.8476,0.0364 0.0986,-0.0191 0.0999,-0.18599 0.18671,-0.2365 0.2561,-0.14901 0.56593,-0.17735 0.84171,-0.28565 0.3149,-0.55271 -0.0198,-0.14647 0.978,-0.26164 0.38876,0.19455 0.43283,-0.3494 0.6953,-0.38329 1.11346,-0.14375 1.03309,0.48045 0.98847,-0.28439 0.39157,0.1653 0.90094,-0.55721 1.10768,-0.62751 0.14107,-0.048 1.73313,-0.27974 1.93367,-0.30272 1.3215,-1.06167 -0.65124,-0.19632 1.78493,-0.44005 0.80253,-0.0803 -0.23262,-0.75252 -0.0573,-0.83622 0.38061,-0.18166 0.8405,0.071 1.26074,0.10655 0.0394,-0.19902 0.82767,-0.80634 0.9386,-0.83488 0.29823,-0.0767 0.62232,0.0357 0.92339,-0.0291 0.14598,-0.0314 0.23694,-0.18588 0.37201,-0.24951 0.16883,-0.0795 0.35431,-0.11738 0.53146,-0.17607 0.4902,-0.49388 1.32359,-0.0293 1.83445,-0.46184 0.098,-0.083 -0.0155,-0.29917 0.0881,-0.37506 0.27979,-0.20494 1.33845,-0.1723 1.55293,-0.1785 0.21723,-0.92445 1.20758,-0.68093 1.89844,-0.85278 0.0214,-0.005 0.71696,-0.50307 0.73534,-0.51616 0.64629,0.0823 0.96129,-0.47202 1.53421,-0.60086 0.26163,-0.0588 0.60028,0.0973 0.80038,-0.0812 0.9105,-0.81227 -2.6202,-0.43753 0.81199,-0.49989 0.50405,0.0515 0.89489,-0.61897 1.31624,-0.71161 0.92163,-0.20266 1.18601,0.22126 1.26867,-0.77836 0.60874,-0.007 1.08485,0.13683 1.57345,-0.25161 0.10764,-0.0856 0.12495,-0.25323 0.22898,-0.34315 0.42566,-0.36794 0.94056,-0.40397 1.35401,-0.81286 0.31058,-0.0292 0.6361,0.0119 0.93173,-0.0877 0.30309,-0.10207 0.45426,-0.45286 0.70819,-0.64728 0.67955,-0.52031 1.05205,-0.56932 1.93255,-0.64909 0.65643,-1.36564 0.003,-0.28383 1.09762,-0.95708 0.12113,-0.0745 0.0287,-0.33049 0.15393,-0.39792 0.0945,-0.0509 1.61114,-0.22626 1.69207,-0.23616 -0.0156,-0.15693 -0.17417,-0.37765 -0.0469,-0.47078 0.22982,-0.16818 0.57592,-0.0261 0.84663,-0.11447 1.36547,-0.44579 -0.35711,-0.0738 0.4928,-0.72585 0.20136,-0.15449 0.49761,-0.10889 0.73509,-0.19844 0.19275,-0.0727 0.36543,-0.19028 0.54815,-0.28542 0.10942,-0.12281 0.17882,-0.29969 0.32825,-0.36842 0.39487,-0.18161 1.07116,-0.0693 1.41315,-0.45622 0.10487,-0.11866 0.009,-0.33441 0.0985,-0.46476 0.0517,-0.0749 0.86785,-0.60323 0.92794,-0.6429 0.47299,-0.45698 1.14683,-0.53795 1.69733,-0.82704 0.42506,-0.22321 0.8719,-0.67291 1.21441,-1.00648 0.26209,-0.0723 0.55557,-0.0731 0.78627,-0.21699 0.14109,-0.088 0.13477,-0.31259 0.252,-0.43051 0.29161,-0.29333 0.8113,-0.31678 1.05752,-0.64912 0.0998,-0.13471 -0.0804,-0.39951 0.0537,-0.50008 0.23869,-0.17895 0.58231,-0.13002 0.87347,-0.19504 0.26847,-0.39459 0.63373,-0.91716 1.07251,-1.14668 0.82344,-0.43074 0.93399,-0.11573 1.34855,-1.03536 0.81357,-1.0881 -0.45651,0.44025 1.09703,-0.608 0.13017,-0.0878 0.0435,-0.34347 0.16689,-0.44057 0.19953,-0.15698 0.52829,-0.0861 0.71757,-0.25529 0.12367,-0.11056 0.0323,-0.33905 0.11079,-0.48518 0.086,-0.16006 0.24446,-0.26891 0.36669,-0.40337 1.54819,-0.25477 0.77201,-1.06915 0.99172,-1.27564 0.73127,-0.68724 1.56225,0.43395 1.36567,-1.19602 1.08142,-0.18888 1.1707,-1.55942 1.99105,-2.06411 0.23947,-0.14733 0.52748,-0.19485 0.79122,-0.29227 0.12788,-0.14324 0.32297,-0.24755 0.38364,-0.42973 0.0629,-0.1888 -0.1197,-0.41217 -0.0422,-0.59547 0.0818,-0.19363 0.33698,-0.25741 0.47108,-0.4193 0.12081,-0.14585 0.14097,-0.3679 0.28391,-0.49214 0.19202,-0.16691 0.55824,-0.12277 0.68034,-0.34598 0.10416,-0.19041 -0.0958,-0.42336 -0.14371,-0.63503 0.14568,-0.14033 0.26363,-0.31685 0.43704,-0.42098 0.23707,-0.14234 0.54756,-0.14259 0.77158,-0.30471 0.15087,-0.10919 0.93441,-1.44443 1.29335,-1.80155 0.71894,-1.5131 -0.45616,0.70493 0.87894,-0.80696 0.11662,-0.13205 -0.0534,-0.42648 0.0961,-0.51972 0.29632,-0.18483 0.72687,-0.0129 1.03152,-0.18363 0.15358,-0.0861 0.10627,-0.3368 0.18122,-0.49611 0.077,-0.1637 0.18192,-0.31276 0.27288,-0.46914 -0.052,-0.20821 -0.22163,-0.42036 -0.15584,-0.62462 0.12753,-0.39592 0.68258,-0.48715 0.96044,-0.79669 0.34541,-0.3848 0.52057,-0.96082 0.77291,-1.407 0.16872,-0.0742 1.33523,-1.04764 1.37569,-1.18251 0.0608,-0.20258 -0.24177,-0.40571 -0.18073,-0.6082 0.0665,-0.22059 0.98411,-0.65425 1.10732,-0.71936 -0.11931,-0.22238 -0.36474,-0.41486 -0.35794,-0.66713 0.006,-0.20663 0.83001,-0.71966 0.89948,-0.80652 0.10922,-0.13655 0.0696,-0.36185 0.18942,-0.48917 1.74006,-1.84861 -0.30528,0.95061 0.92001,-0.80748 -0.93514,-1.49588 -0.3785,-0.0947 0.63102,-0.96515 0.15973,-0.13772 -0.10557,-0.41514 -0.0938,-0.62571 0.011,-0.19595 0.03,-0.41985 0.16048,-0.56646 0.17802,-0.20006 0.5949,-0.15088 0.69783,-0.39811 0.0953,-0.22895 -0.15913,-0.46977 -0.2387,-0.70466 0.20292,-1.21011 -0.12026,-0.025 0.60714,-1.07616 0.1136,-0.16416 0.0723,-0.41686 0.21086,-0.56054 0.83057,-0.86106 1.02982,0.13916 0.6247,-1.6837 0.78614,-0.79055 0.34036,-0.11085 0.47019,-1.12502 0.026,-0.20292 0.13477,-0.38835 0.16868,-0.59009 0.0351,-0.2089 -0.052,-0.44225 0.0371,-0.63439 0.6065,-1.30695 0.54174,0.34501 0.4499,-1.16817 0.19881,-0.16013 0.56856,-0.22663 0.59642,-0.48038 0.0334,-0.304 -0.39278,-0.49682 -0.45628,-0.79599 -0.13179,-0.62087 0.40192,-0.72547 0.65562,-1.13904 0.34555,-0.56333 0.1641,-0.74032 0.012,-1.3398 0.68928,-2.66274 -0.37743,2.06405 -0.3079,-1.4416 0.005,-0.24396 0.38218,-0.32201 0.49737,-0.53712 0.51833,-0.96795 -0.19622,-0.37085 -0.16637,-1.4136 0.006,-0.22669 0.22678,-0.39278 0.34018,-0.58917 0.0214,-0.064 0.40408,-1.17054 0.38029,-1.2555 -0.0918,-0.32775 -0.52666,-0.50357 -0.5812,-0.83953 -0.0364,-0.22398 0.32694,-0.35805 0.35016,-0.58377 0.14116,-1.37192 -0.84471,-0.18645 0.37934,-1.26433 -0.40682,-0.59291 -0.69795,-1.35025 -0.55698,-2.09261 0.0371,-0.19536 0.23993,-0.34508 0.24513,-0.54386 0.0116,-0.44536 -0.25666,-0.85407 -0.35376,-1.28887 0.035,-2.43779 0.22502,0.19509 -0.7004,-1.90881 -0.0737,-0.16754 0.15936,-0.32985 0.22777,-0.49961 0.32338,-0.80251 0.25606,-0.44363 -0.49465,-1.24947 -0.2022,-0.28371 -0.73682,-0.85886 -0.65461,-1.31481 0.0347,-0.19256 0.37699,-0.2714 0.35689,-0.46603 -0.0281,-0.27204 -0.4231,-0.40091 -0.47413,-0.6696 -0.29258,-1.54052 1.58369,0.9918 -0.38308,-1.19555 0.0643,-0.16116 0.27329,-0.32964 0.19299,-0.48346 -0.16943,-0.32455 -0.63867,-0.41028 -0.8243,-0.72584 -0.089,-0.1512 0.14035,-0.34929 0.0926,-0.51808 -0.0665,-0.23469 -0.34238,-0.37147 -0.41077,-0.60561 -0.41984,-1.4373 1.14542,0.76211 -0.45575,-1.14175 0.0781,-0.69254 -0.68215,-1.10143 -0.77849,-1.73032 -0.0251,-0.16352 0.16227,-0.32055 0.1221,-0.48102 -0.5014,-2.00323 -0.37973,0.48361 -0.4017,-1.09982 -0.0269,-0.17109 0.0157,-0.36943 -0.0808,-0.51327 -0.1707,-0.25453 -0.48036,-0.3865 -0.67911,-0.61979 -0.50217,-0.58945 -0.69759,-1.25117 -0.87015,-1.97895 -0.42309,-0.74826 -1.22386,-1.23032 -1.69502,-1.93078 -0.82718,-1.22973 0.8048,0.63751 -0.50772,-0.78016 -0.25889,-0.16453 -0.55451,-0.28209 -0.77668,-0.4936 -0.0675,-0.0643 -0.11302,-0.58857 -0.20384,-0.65245 -0.32411,-0.22795 -0.80043,-0.22543 -1.07175,-0.5142 -0.10075,-0.10724 0.25594,-0.14526 0.38391,-0.21788 -0.17608,-0.12241 -0.35216,-0.24482 -0.52824,-0.36723 -0.17793,-0.12818 -0.35587,-0.25636 -0.5338,-0.38455 -0.004,-0.09 0.047,-0.20111 -0.0111,-0.26985 -0.41915,-0.49559 -1.7936,-0.48216 -1.62695,-1.27658 -1.11675,-0.57799 -2.35798,-0.95516 -3.33394,-1.77174 -0.38194,-0.12414 -0.79768,-0.17218 -1.14582,-0.37241 -0.0877,-0.0504 0.34997,-0.0606 0.27497,-0.12846 -0.0895,-0.0811 -2.13177,-1.02867 -2.31097,-1.09931 -0.70624,-0.65821 -1.87023,-0.52886 -2.61784,-1.10081 -0.0453,-0.0347 0.0612,-0.0964 0.0917,-0.14454 -0.27079,-0.0954 -0.54159,-0.19084 -0.81238,-0.28626 0.0586,-0.0439 0.24052,-0.0977 0.17569,-0.13161 -0.32463,-0.16991 -0.71534,-0.17627 -1.04981,-0.32589 -0.0937,-0.0419 0.32465,-0.11805 0.24645,-0.1845 -0.21251,-0.18058 -0.51575,-0.21582 -0.75825,-0.35354 -0.0422,-0.0168 -0.60569,-0.24123 -0.6065,-0.24289 -0.0362,-0.0738 0.173,-0.0184 0.23602,-0.0712 0.0272,-0.0228 -0.10569,-0.0119 -0.096,-0.0461 0.25238,-0.88473 0.15461,0.69761 0.17217,-0.56772 0.0409,-0.0401 0.0671,-0.10682 0.12279,-0.12022 0.19724,-0.0475 0.37379,0.1596 0.56744,0.2201 1.6791,0.52456 3.36419,1.0299 5.0512,1.52845 0.49405,0.146 0.72067,0.081 0.28148,0.15105 0.24399,0.0554 0.48799,0.11087 0.73198,0.1663 -0.0473,0.0274 -0.27705,0.10175 -0.0452,0.17558 0.45797,0.14582 1.13715,0.20314 1.14431,0.36002 0.004,0.0938 -0.18429,0.0363 -0.27644,0.0544 0.98173,0.0389 1.5186,0.71188 2.33623,1.02922 0.84678,0.31875 1.59302,0.83387 2.43689,1.14822 0.80408,0.46802 1.67294,0.92021 2.51698,1.35585 0.66127,0.57102 1.62215,0.76444 2.23476,1.36768 0.7284,0.34313 1.57381,0.57353 2.2451,1.02889 0.0663,0.045 0.0759,0.14126 0.11379,0.21188 0.19513,0.0919 0.39026,0.18383 0.5854,0.27575 0.79927,0.46685 1.61202,0.91045 2.38445,1.44613 0.8937,0.51679 1.81274,0.9523 2.70746,1.46922 0.76863,0.0162 1.43608,0.98405 1.94317,1.24059 0.24227,0.12257 0.50751,0.19313 0.76126,0.28969 0.95059,0.49964 1.81325,1.11567 2.7846,1.58895 0.78101,0.5735 1.59287,1.031 2.40124,1.5731 0.19971,0.10251 0.39943,0.20501 0.59914,0.30752 3.2e-4,0.0653 -0.0565,0.16479 9.4e-4,0.196 0.34186,0.18587 0.74857,0.22634 1.09647,0.40066 0.0859,0.043 0.0943,0.17316 0.16915,0.23347 0.18418,0.14845 0.92259,0.50325 1.07601,0.58055 0.15516,0.0746 0.95134,0.43174 1.11276,0.59619 0.0471,0.048 -0.0532,0.16565 0.004,0.2016 0.0923,0.0584 1.74543,0.85346 1.97608,0.96012 0.0512,0.0812 0.0726,0.19222 0.15368,0.24366 0.22978,0.14577 0.50876,0.19754 0.74753,0.32806 0.40902,0.22358 1.32421,0.80025 1.64398,1.08659 0.349,0.44073 0.96484,0.48544 1.36493,0.86269 0.0697,0.0657 0.0473,0.21492 0.13489,0.25358 0.48183,0.21267 1.03355,0.24294 1.50803,0.47156 0.0695,0.0335 -0.0496,0.14611 -0.0744,0.21917 -0.008,0.0718 -0.088,0.18134 -0.0243,0.21543 0.39984,0.21387 0.88727,0.23253 1.28129,0.45693 0.0687,0.0391 -0.17729,0.16311 -0.11268,0.20864 0.29668,0.20903 0.68879,0.24093 1.00458,0.41979 0.10031,0.0568 0.14331,0.18063 0.21496,0.27095 0.19538,0.10239 0.39076,0.20479 0.58614,0.30719 0.61834,0.24689 1.05961,0.83713 1.63251,1.142 1.01821,0.41917 0.57737,0.20042 1.33952,0.62084 0.16533,0.0982 0.33066,0.19646 0.49599,0.29469 0.30453,0.11653 0.63161,0.18589 0.9136,0.34959 0.0539,0.0313 -0.0311,0.13976 0.01,0.18655 0.37541,0.42734 1.17678,0.64011 1.67404,0.85055 0.95515,0.70337 2.04493,1.26377 3.12376,1.77552 0.0851,0.0819 0.14693,0.19872 0.2553,0.24565 0.38475,0.16662 0.8053,0.23651 1.19791,0.38367 1.44655,0.54219 -0.0713,-0.008 0.75358,0.49956 0.22374,0.13772 1.10931,0.48446 1.32903,0.57361 0.26336,0.10685 0.55755,0.15714 0.7901,0.32055 0.0528,0.0371 -0.14372,0.13537 -0.0901,0.17131 0.77797,0.52181 1.95865,0.57847 2.77931,1.17869 0.99602,0.76269 -0.78295,-0.56146 1.01823,0.54985 0.0746,0.046 0.0704,0.17852 0.1495,0.21628 0.29981,0.14315 1.67555,0.35582 1.76797,0.88979 0.72526,0.36128 1.54429,0.56186 2.25689,0.95015 0.37568,0.20471 0.72916,0.52803 1.10433,0.75024 1.15047,0.39728 2.14714,1.06835 3.23982,1.61935 0.55016,0.42055 1.32293,0.49275 1.89992,0.83662 0.0558,0.0333 -0.0295,0.16055 0.0267,0.19298 1.461,0.84201 0.46597,-0.0521 1.05358,0.50641 0.9885,0.37829 1.85417,0.95826 2.76882,1.47424 0.89438,0.43785 1.81473,0.83103 2.7799,1.07146 -0.56374,-0.0478 -0.51914,-0.0592 0.11872,0.0707 -1.91585,-0.44038 -3.83661,-0.85996 -5.74756,-1.32114 -0.0899,-0.0217 -0.72751,-0.17936 -0.38605,-0.23693 -0.23488,-0.23214 -0.59432,-0.25572 -0.86251,-0.41261 -0.13785,-0.0806 -0.0779,-0.14284 -0.0383,-0.23071 -0.18695,-0.0738 -0.3739,-0.14762 -0.56085,-0.22143 -0.24776,-0.0798 -0.51031,-0.12329 -0.74329,-0.23937 -0.0358,-0.0178 0.0943,-0.0585 0.0751,-0.0935 -0.11663,-0.21245 -0.56355,-0.26713 -0.69022,-0.38299 -0.0413,-0.0378 0.18406,-0.0623 0.13854,-0.0948 -0.17989,-0.12862 -0.41061,-0.16433 -0.61592,-0.2465 -0.97767,-0.4153 -1.84684,-0.9836 -2.84785,-1.34268 0.0359,-0.0404 0.14865,-0.0859 0.10769,-0.1211 -0.52643,-0.45245 -1.46678,-0.3684 -1.97834,-0.77308 -0.11171,-0.0884 0.28188,-0.0413 0.42281,-0.062 -0.30516,-0.0987 -0.61033,-0.1975 -0.91549,-0.29625 -0.58122,-0.41027 -1.39784,-0.47167 -1.9864,-0.84357 -0.042,-0.0265 0.0572,-0.0813 0.0858,-0.12195 -0.24101,-0.0911 -0.48203,-0.1822 -0.72305,-0.2733 -0.49301,-0.34969 -1.21081,-0.32488 -1.67611,-0.71793 -0.0388,-0.0328 0.0739,-0.12573 0.029,-0.14949 -1.51176,-0.80087 -0.42136,0.0592 -1.01201,-0.42786 -0.66578,-0.42031 -1.83658,-0.39089 -2.41578,-0.9586 -0.0366,-0.0359 0.11874,-0.11324 0.0726,-0.13563 -0.28862,-0.14008 -0.61458,-0.18438 -0.92187,-0.27657 0.0448,-0.0465 0.18673,-0.10164 0.13445,-0.13959 -0.43277,-0.31409 -2.40423,-0.9617 -2.98073,-1.16129 -0.014,-0.045 10e-4,-0.11656 -0.0421,-0.13512 -0.31582,-0.13516 -0.66251,-0.18493 -0.98463,-0.30428 -0.6659,-0.24672 -0.14772,-0.11243 -0.59483,-0.36769 -0.37855,-0.21611 -0.75703,-0.33273 -1.16722,-0.48472 -1.1746,-0.26803 -2.01612,-1.00954 -3.07107,-1.37601 -0.81604,-0.56178 -1.76027,-0.92693 -2.6593,-1.38334 -0.30564,-0.10894 -0.64918,-0.14352 -0.91693,-0.32681 -0.0778,-0.0533 0.31472,-0.0575 0.25225,-0.12817 -0.0947,-0.10718 -1.88766,-0.93553 -2.1954,-1.08867 -1.03755,0.2013 -0.11446,-0.3441 -0.25985,-0.42333 -0.34898,-0.19019 -0.7657,-0.22083 -1.13106,-0.37726 -0.94463,-0.40447 0.70213,-0.0923 -1.42826,-0.79525 -0.73544,-0.62821 -1.583,-1.19082 -2.48583,-1.53453 -1.09057,-0.72431 -1.64192,-1.17681 -2.93548,-1.59508 -0.80788,-0.59865 -1.74118,-1.10001 -2.65269,-1.54064 -0.53455,-0.4834 -0.78082,-0.46537 -1.51509,-0.81003 -0.11118,-0.0522 -0.17654,-0.1769 -0.2864,-0.2318 -0.24472,-0.12229 -0.53635,-0.14578 -0.76617,-0.29419 -0.0541,-0.035 0.008,-0.12858 0.012,-0.19287 -0.2014,-0.0933 -0.42116,-0.15428 -0.60419,-0.27982 -0.5703,-0.39116 0.45072,-0.0917 -0.4211,-0.46779 -0.28089,-0.12117 -1.53164,-0.41678 -1.60518,-0.64341 -0.0402,-0.12378 0.24614,-0.0846 0.36922,-0.12684 -0.79755,-0.43438 -1.90519,-0.58564 -2.63512,-1.15202 -0.0527,-0.0409 -0.0195,-0.13202 -0.0293,-0.19803 -0.20188,-0.0929 -0.40376,-0.18575 -0.60564,-0.27862 -0.60734,-0.58947 -0.75079,-0.33788 -1.70922,-0.80859 -0.0606,-0.0298 0.12259,-0.15267 0.0671,-0.19119 -1.0709,-0.74338 -0.62631,0.0336 -0.90108,-0.51088 -0.38374,-0.12889 -0.80095,-0.18373 -1.15122,-0.38666 -0.0789,-0.0457 0.15387,-0.0977 0.23081,-0.1466 -0.11444,-0.0885 -0.21494,-0.19873 -0.34332,-0.26537 -0.25651,-0.13316 -0.55493,-0.17944 -0.80211,-0.32921 -0.0807,-0.0489 -0.0958,-0.1626 -0.14376,-0.24389 -0.19092,-0.10083 -0.38183,-0.20166 -0.57274,-0.30249 -0.26782,-0.12233 -0.58944,-0.16477 -0.80346,-0.36698 -0.07,-0.0661 0.29425,-0.10294 0.23008,-0.17477 -0.26514,-0.29678 -1.42992,-0.70621 -1.75484,-1.0105 -0.0549,-0.0514 0.0292,-0.14758 0.0437,-0.22136 -0.46153,-0.28414 -1.11807,-0.60255 -1.50115,-1.01117 -0.0577,-0.0615 0.023,-0.19972 -0.0456,-0.24879 -0.26817,-0.19191 -0.64144,-0.2116 -0.89401,-0.42363 -0.0651,-0.0546 0.0827,-0.14853 0.124,-0.22279 -0.42711,-0.4146 -1.14282,-0.36496 -1.57415,-0.75579 -0.0813,-0.0737 0.30514,-0.077 0.27406,-0.18218 -0.11975,-0.40535 -1.20364,-0.74183 -1.54931,-0.98252 -0.31868,-0.8267 -0.95102,-0.77077 -1.67371,-1.19025 -0.0662,-0.0384 -0.0373,-0.14846 -0.0559,-0.22269 -0.32586,-0.13515 -0.65171,-0.2703 -0.97756,-0.40546 -0.23436,-1.26269 -1.49401,-0.21415 -1.71901,-1.64716 -0.29532,-0.14159 -0.63475,-0.21465 -0.88596,-0.42477 -0.071,-0.0594 0.10952,-0.20047 0.0519,-0.27291 -0.34032,-0.42744 -1.08862,-0.41284 -1.3901,-0.86851 -0.0756,-0.11423 0.22177,-0.16084 0.33265,-0.24126 -0.13418,-0.13618 -0.26835,-0.27237 -0.40253,-0.40855 0.70099,-0.66777 0.0839,-0.467 -0.12215,-1.03979 -0.0792,-0.22008 0.20518,-0.44116 0.1926,-0.67471 -0.008,-0.1396 -0.0747,-0.26943 -0.11213,-0.40414 -0.0657,-0.14321 -0.13138,-0.28642 -0.19707,-0.42963 0.0335,-0.11932 0.13024,-0.23761 0.10065,-0.35797 -0.0461,-0.18741 -0.31674,-0.29676 -0.30901,-0.48958 0.006,-0.15246 0.29998,-0.15848 0.34089,-0.30547 0.23912,-0.85919 -0.81331,-0.0971 0.39964,-0.72217 -0.1358,-1.60153 -0.0459,0.74306 0.28119,-0.77721 0.0357,-0.16601 -0.12011,-0.32123 -0.13963,-0.48991 -0.0168,-0.14527 -0.002,-0.29534 0.0323,-0.43753 0.0341,-0.14171 0.195,-0.2594 0.16975,-0.40294 -0.0385,-0.2188 -0.22754,-0.38163 -0.34131,-0.57245 0.0389,-0.43723 0.67352,-0.36231 0.79982,-0.69128 0.0654,-0.17047 -0.19161,-0.34884 -0.15043,-0.52673 0.14008,-0.6051 0.55309,-0.0232 0.39265,-1.39824 0.0967,-0.51457 0.6225,-0.89886 0.58461,-1.45094 -0.0147,-0.21351 -0.29025,-0.41234 -0.20472,-0.60851 0.56598,-1.29823 0.91419,0.59476 0.44667,-0.97487 -0.35088,-1.36512 -0.098,0.0905 0.0272,-1.12954 0.0206,-0.2007 -0.13113,-0.40925 -0.0693,-0.60128 0.064,-0.19848 0.38355,-0.26265 0.41409,-0.46894 -0.31282,-0.85043 -0.29232,-0.43546 -0.13151,-1.23947 0.22402,-0.69168 0.59188,-0.98725 0.38165,-1.74382 -0.0677,-0.24358 -0.29311,-0.45529 -0.27365,-0.70736 0.008,-0.0978 0.74036,-0.99736 0.78461,-1.05304 -0.0931,-0.22914 -0.33218,-0.44584 -0.27915,-0.6874 0.0501,-0.22829 0.52183,-0.22475 0.53066,-0.45831 0.0111,-0.29492 -0.39232,-0.46042 -0.48534,-0.74051 -0.059,-0.17766 0.0924,-0.37585 0.0538,-0.55901 -0.40781,-1.93301 -0.29377,0.46663 -0.31803,-1.23124 0.34288,-0.65829 -0.43281,-1.65777 -0.32813,-2.23545 0.0316,-0.1746 0.21997,-0.2832 0.29074,-0.44592 0.0632,-0.1452 0.0698,-0.30888 0.10471,-0.46332 -0.79662,-0.54215 -0.74745,-0.86091 -0.87588,-1.68223 -0.0249,-0.15916 0.0344,-0.33111 -0.0196,-0.48287 -0.66118,-1.85729 -0.12164,0.59443 -0.43441,-1.00846 -0.27226,-0.39968 -0.52977,-0.93342 -0.62456,-1.41496 -0.0266,-0.13499 0.10291,-0.29711 0.027,-0.41187 -0.85137,-1.28745 -0.635,-0.01 -0.7279,-1.00352 0.0588,-0.82964 -0.66176,-1.16285 -1.07977,-1.73866 -0.77908,-1.07319 1.00046,0.53818 -0.65707,-0.8128 0.166,-0.79368 -1.50713,-1.73506 -2.14139,-2.23309 0.52237,-0.48963 -0.67977,-0.6749 -0.98499,-1.0093 -0.0663,-0.0727 -0.0229,-0.219 -0.10255,-0.2769 -0.76248,-0.55462 -1.09809,-0.15316 -0.54303,-0.59968 -0.27468,-0.13054 -0.5743,-0.21807 -0.82404,-0.39162 -0.07,-0.0487 -0.0185,-0.18899 -0.0861,-0.24088 -0.66241,-0.50791 -1.55953,-0.65436 -2.15847,-1.25548 -0.47024,-0.51109 -0.004,-0.0719 -0.96137,-0.57942 -1.06844,-0.5662 -0.81759,-0.6709 -2.20401,-1.13005 0.0482,-0.0465 0.19248,-0.0927 0.14464,-0.13959 -0.56042,-0.54937 -2.11715,-0.72698 -2.5832,-1.17781 -1.15615,-0.29504 -2.23501,-0.81384 -3.37145,-1.14869 9.02085,3.44837 4.73473,1.20942 3.0569,0.94433 -0.0485,-0.008 0.045,0.15553 -0.003,0.14732 -1.17339,-0.37335 -0.65133,-0.26572 -1.54855,-0.39893 -0.77438,-0.0105 -1.77101,-0.28669 -2.51884,-0.2861 -0.0909,7e-5 -0.15325,0.0979 -0.22987,0.1468 -0.3598,-0.0767 -0.71959,-0.1533 -1.07939,-0.22995 -0.25587,-0.026 -0.51127,-0.0988 -0.76761,-0.0779 -0.10437,0.008 -0.16454,0.15536 -0.26903,0.16218 -0.48651,0.0317 -0.97371,-0.0704 -1.46122,-0.0643 -0.23975,0.003 -0.50004,-0.10529 -0.71927,-0.008 -0.0976,0.0432 0.0104,0.21327 0.0155,0.31991 -0.24823,10e-4 -0.49645,0.003 -0.74468,0.004 -0.1601,0.0423 -0.3149,0.11878 -0.48029,0.12692 -0.30552,0.015 -0.61015,-0.0695 -0.91583,-0.0582 -0.49262,0.0183 -1.0039,0.26856 -1.45585,0.44179 -0.18894,0.0425 -0.37789,0.085 -0.56684,0.12745 -0.10009,0.0839 -0.17381,0.21906 -0.30027,0.25167 -2.49958,0.11693 -0.0272,-0.24128 -0.98184,0.36369 -0.76976,0.48779 -0.52182,-0.24225 -0.65893,0.5227 -0.48012,0.13378 -1.35151,0.003 -1.60541,0.58086 -0.0545,0.12392 0.0853,0.35581 -0.0412,0.40402 -2.32952,0.88785 -0.26541,-0.5947 -1.41247,0.29533 -0.39504,0.88559 0.19268,-0.20268 -0.72821,0.58038 -0.10228,0.087 -0.0416,0.28347 -0.13573,0.3792 -0.12763,0.12982 -0.35615,0.12283 -0.48464,0.2518 -0.73768,0.74042 0.85336,0.15647 -0.89519,0.56452 -0.26951,0.94193 0.1622,-0.14274 -0.78118,0.63516 -0.83134,0.68553 0.73991,0.20163 -0.48205,0.75928 -0.99335,0.45332 -0.73892,-0.2007 -0.88401,0.64722 -0.13612,0.11317 -0.29802,0.20108 -0.40836,0.3395 -0.54507,0.68379 0.22832,0.25621 -0.69249,0.78673 -0.20872,0.12026 -0.60395,0.0694 -0.65524,0.30476 -0.29455,1.35145 1.43108,0.15278 -0.18825,1.02515 -0.37496,1.03336 -0.58733,2.1125 -1.04272,3.13532 -0.94071,0.66134 -0.55344,0.7657 -0.6156,1.64649 -0.0132,0.1875 -0.1828,0.35061 -0.16876,0.53805 0.0177,0.23576 0.29164,0.42637 0.25853,0.66046 -0.0292,0.20619 -0.27845,0.30972 -0.41768,0.46458 -1.06174,0.50878 0.48073,1.23532 0.18828,1.81005 -0.12242,0.24059 -0.68884,0.0948 -0.72419,0.36244 -0.19576,1.48206 1.54869,0.13974 -0.0278,1.10332 0.16923,0.59613 0.70716,1.06903 0.43535,1.71568 -0.0684,0.16264 -0.34615,0.26912 -0.29651,0.43842 0.73668,0.77304 0.54591,0.35558 0.73649,1.16346 -0.0695,0.13462 -0.22042,0.25284 -0.20845,0.40386 0.0113,0.14315 0.58521,1.00059 0.6304,1.09355 0.24303,0.49998 0.0666,0.81219 -0.0109,1.32159 0.24422,0.30455 0.5466,0.59177 0.63859,0.99198 0.031,0.135 -0.0584,0.28656 -0.008,0.41548 0.18082,0.46019 0.71152,0.96662 0.98747,1.39105 0.0987,0.15162 0.26049,0.2775 0.29624,0.45487 0.0262,0.12995 -0.1367,0.24393 -0.12876,0.37624 0.0181,0.30157 0.99615,1.42228 1.24537,1.79942 -0.0289,0.6939 0.79639,1.03959 1.00611,1.61882 0.0372,0.10271 -0.062,0.20948 -0.093,0.31422 0.10633,0.13813 0.21267,0.27626 0.31901,0.4144 0.32758,0.17541 0.69629,0.28956 0.98275,0.52625 0.0791,0.0654 -0.0265,0.21834 0.0255,0.30685 0.22679,0.38619 1.03594,1.2218 1.38424,1.49826 0.19761,0.60626 1.35764,1.01196 1.63329,1.34759 0.0564,0.0687 -0.11705,0.13378 -0.17557,0.20068 0.24832,0.11486 0.49664,0.22973 0.74497,0.34459 0.92829,0.56974 1.86175,1.10408 2.90194,1.39439 1.77796,0.54918 4.80735,1.55364 -3.5201,-1.07494 -0.16626,-0.0525 0.34152,0.0724 0.50828,0.12329 1.04836,0.31981 1.23004,0.59834 0.7211,0.0577 0.60714,0.19383 2.34329,0.563 2.87391,0.0552 0.26707,0.0276 0.53415,0.0551 0.80123,0.0827 0.0582,-0.0659 0.0876,-0.18452 0.17453,-0.1978 0.26227,-0.0401 0.53354,0.0983 0.79437,0.0498 0.0977,-0.0182 0.0925,-0.20118 0.18692,-0.23229 1.11831,-0.36854 0.3128,0.26344 0.90696,-0.27167 0.14712,-0.0582 0.36764,-0.0347 0.44135,-0.17468 0.0664,-0.12622 -0.0905,-0.27057 -0.13571,-0.40585 0.35961,0.0187 0.75066,0.20435 1.07882,0.0561 0.15045,-0.068 -0.3409,-0.36691 -0.20008,-0.45309 1.14347,-0.69985 0.97051,0.56778 1.00218,-0.42845 0.62285,-0.13683 0.64079,-0.99154 0.67331,-1.02586 0.14998,-0.15829 0.49759,-0.0529 0.60827,-0.24075 0.60828,-1.03261 -1.39901,-0.0894 0.4965,-0.74863 -0.21754,-1.37518 0.56012,-0.59309 0.7399,-1.111 0.0754,-0.21719 -0.34338,-0.33911 -0.3999,-0.56196 -0.0384,-0.15155 0.31827,-0.65671 0.38368,-0.75892 0.77041,-1.60938 -0.43797,1.18839 -0.12231,-0.8691 0.0261,-0.17014 0.45843,-0.1258 0.4242,-0.2945 -0.26227,-1.29262 -0.84161,0.1924 -0.47717,-1.24054 -0.0559,-0.13743 -0.11175,-0.27486 -0.16762,-0.4123 0.0416,-0.10548 0.16706,-0.21123 0.12477,-0.31644 -0.0798,-0.19865 -0.32471,-0.2875 -0.44002,-0.46789 -0.18985,-0.29702 -0.29079,-0.86391 -0.39411,-1.20509 -0.49606,-0.28485 -0.84234,-0.64867 -0.83831,-1.24193 7e-4,-0.10345 0.15784,-0.1882 0.12217,-0.28531 -0.11277,-0.30701 -0.43188,-0.49413 -0.61073,-0.76797 -0.0608,-0.12137 -0.14355,-0.23404 -0.18242,-0.36411 -0.0293,-0.0982 0.0218,-0.21251 -0.0181,-0.30686 -0.28944,-0.68345 -1.29378,-0.71131 -1.36215,-1.47767 -0.228,-0.14888 -0.45601,-0.29776 -0.68401,-0.44664 0.066,-0.0839 0.25949,-0.16462 0.19787,-0.25178 -0.15823,-0.22381 -0.47566,-0.27615 -0.69099,-0.44574 -0.67125,-0.52866 -0.15585,-0.44615 -1.13034,-1.06154 -0.39994,-0.62647 -1.23205,-0.75804 -1.53483,-1.51139 -0.0868,-0.22923 -0.53103,-0.12718 -0.59471,-0.34783 -0.0411,-0.14234 0.55727,0.0364 0.44099,-0.0554 -0.59445,-0.46933 -0.47545,-0.0298 -0.54433,-0.38991 0.85665,-2.15401 0.0143,-0.3822 5.69726,1.29348 0.0372,0.011 0.71555,0.14943 0.82416,0.29282 0.0274,0.0361 -0.0836,0.0351 -0.12532,0.0526 0.0559,0.0482 0.11171,0.0963 0.16756,0.14452 0.14017,0.0551 0.28034,0.1102 0.42051,0.1653 -0.002,0.0448 -0.0449,0.1126 -0.006,0.13431 0.2049,0.11345 0.44867,0.13772 0.66387,0.23015 0.58517,0.25132 -0.52835,0.008 0.57118,0.45889 0.0861,0.41067 0.96142,0.43565 1.02831,0.81508 0.0136,0.0772 -0.23477,0.10964 -0.17361,0.1587 0.21223,0.17027 0.50385,0.20558 0.75577,0.30836 -0.22567,0.45313 -0.08,0.005 0.59472,0.49629 0.0612,0.0446 -0.0131,0.17403 0.0449,0.22274 0.39718,0.33351 0.93823,0.29763 1.16936,0.79617 0.16795,0.39175 0.59299,0.49773 0.91416,0.72963 0.087,0.0628 0.16973,0.13697 0.22854,0.22673 0.0333,0.0509 -0.0135,0.14495 0.0371,0.17869 0.21509,0.14337 0.47165,0.21174 0.70748,0.31761 0.50071,0.46363 1.16384,0.59027 1.7515,0.88661 0.279,0.14069 0.60422,0.50224 0.87527,0.67421 0.0795,0.0714 0.15904,0.14275 0.23856,0.21413 0,0 -5.43441,-0.89867 -5.43441,-0.89867 l 0,0 c -0.2717,-0.10598 -0.54341,-0.21196 -0.81512,-0.31794 -0.0793,-0.0722 -0.19606,-0.11791 -0.23798,-0.21665 -0.0244,-0.0575 0.12593,-0.14021 0.0726,-0.17281 -0.41496,-0.25376 -1.17428,-0.15815 -1.31986,-0.62225 -0.0293,-0.0933 0.32619,-0.0832 0.25314,-0.14825 -0.21176,-0.18843 -0.52373,-0.21702 -0.78559,-0.32553 0.003,-0.52205 -1.86734,-0.8528 -2.03178,-1.31598 -0.0344,-0.097 0.17774,-0.10409 0.2666,-0.15614 -0.47705,-0.23036 -1.10804,-0.52699 -1.51551,-0.88167 -0.24472,-0.21301 -0.32564,-0.66055 -0.85643,-0.72844 0.51222,-0.3436 0.15567,-0.0203 -0.66232,-0.46825 -0.0516,-0.0283 0.0111,-0.13352 -0.032,-0.17356 -0.2079,-0.19315 -0.56473,-0.19409 -0.58196,-0.53858 -0.007,-0.005 -0.52725,-0.33846 -0.55302,-0.34993 -0.21068,-0.0938 -0.55093,-0.0321 -0.64845,-0.24103 -0.0735,-0.15748 0.4502,0.1255 0.5203,-0.0335 0.14538,-0.32981 -1.30415,-0.0253 -1.01262,-0.37917 -0.15871,-0.10523 -0.38242,-0.10854 -0.51684,-0.24344 -0.0464,-0.0465 0.21986,0.0323 0.19493,-0.0285 -0.036,-0.0877 -0.34842,-0.14609 -0.25674,-0.12212 5.44978,1.42477 6.43115,2.92543 4.98866,1.0001 1.12323,-0.006 -0.1128,-0.0901 0.3148,0.0911 0.21289,0.0902 0.46322,0.091 0.66071,0.21125 0.0513,0.0312 -0.1,0.0665 -0.14994,0.0998 -0.10262,0.35111 -8.9e-4,-0.15064 0.3749,0.36157 0.0409,0.0557 -0.15059,0.11594 -0.11293,0.1739 0.32897,0.50634 1.31661,0.73494 1.73341,1.08059 -0.0135,0.0914 -0.10396,0.20715 -0.0404,0.27427 0.18919,0.19991 0.49386,0.25297 0.7057,0.42869 0.39861,0.33065 0.68061,0.94972 0.92524,1.39621 0.16699,0.13622 0.33397,0.27244 0.50096,0.40866 0.0132,0.10569 -0.0287,0.23541 0.0397,0.31706 0.15758,0.18812 0.47778,0.22025 0.59223,0.43733 0.0547,0.10377 -0.29642,0.19491 -0.21458,0.27897 0.26493,0.27213 0.70102,0.30843 1.00635,0.53431 0.11405,0.0844 0.14234,0.24544 0.21351,0.36816 -0.17576,0.62143 0.22232,0.60859 0.48248,1.12386 0.0558,0.11042 -0.024,0.25606 0.0233,0.37035 0.49774,1.20213 0.20036,-0.22279 0.37648,0.8269 0.24434,0.57206 0.10314,0.28554 0.42911,0.85683 0.16617,0.38053 0.12195,0.82098 0.27193,1.1979 0.0651,0.16357 0.17722,0.30425 0.26583,0.45638 0.58835,1.2911 0.0325,-0.32382 -0.18869,0.77946 -0.0356,0.17755 0.2518,0.30833 0.23705,0.48881 -0.0126,0.15423 -0.35757,0.20378 -0.30554,0.34951 0.10204,0.28584 0.56897,0.3408 0.6558,0.63161 0.0482,0.16138 -0.24131,0.23501 -0.36196,0.35251 -0.22259,0.49198 -0.14219,1.42236 -0.39116,1.76462 -0.11142,0.15318 -0.3576,0.17935 -0.45313,0.34292 -0.0801,0.13708 -0.0166,0.31706 -0.0249,0.47559 -1.06089,0.86507 0.0374,-0.21741 -0.40841,0.85036 -0.17907,0.42893 -1.04413,0.79314 -0.95243,1.5323 -0.22693,0.0582 -0.45386,0.11647 -0.68079,0.1747 -0.0637,0.11161 -0.0776,0.27461 -0.19114,0.33482 -0.21663,0.11487 -0.51442,0.0156 -0.72045,0.14857 -0.10671,0.0688 0.007,0.28354 -0.0853,0.37131 -0.22184,0.21214 -0.65353,0.099 -0.81841,0.42208 -0.37919,0.51735 -0.019,0.16999 -0.84398,0.38019 -0.13478,0.0343 -0.28477,0.0679 -0.38236,0.16703 -0.0731,0.0742 0.0242,0.29436 -0.0797,0.3022 -2.76703,0.20871 -0.33777,-0.46689 -1.57819,-0.0901 -0.0611,0.0676 -0.0934,0.18739 -0.1832,0.20275 -0.074,0.0127 -1.33385,-0.11667 -1.39855,-0.11873 -0.14238,-0.005 -0.28421,0.0199 -0.42631,0.0298 -0.0756,0.0383 -0.14199,0.11423 -0.22674,0.11503 -0.21483,0.002 -0.42373,-0.0713 -0.63559,-0.10689 -0.19344,-0.0311 -0.38687,-0.0622 -0.5803,-0.0933 -0.0263,0.0379 -0.0327,0.11613 -0.0788,0.11372 -0.20672,-0.0108 -0.40494,-0.0885 -0.60278,-0.14942 -2.39275,-0.73709 -4.8391,-1.45777 -7.21709,-2.29109 -0.20974,-0.0772 -0.41948,-0.15448 -0.62921,-0.23173 -0.0146,-0.0527 0.005,-0.13321 -0.0438,-0.15802 -0.27121,-0.13813 -0.58675,-0.17169 -0.86133,-0.30299 -0.0979,-0.0468 -0.1419,-0.17159 -0.23775,-0.22254 -0.25993,-0.13818 -0.54401,-0.22511 -0.81602,-0.33767 -0.19085,-0.10631 -0.38171,-0.21262 -0.57256,-0.31893 -0.51884,-0.88871 -1.4644,-1.36507 -2.22674,-2.01037 -0.074,-0.76344 -0.66553,-0.64941 -1.1489,-1.15536 -0.0722,-0.0756 0.0918,-0.23598 0.021,-0.3129 -1.59987,-1.73824 -0.22186,0.38305 -0.99037,-0.87171 0.0456,-0.10561 0.18018,-0.21036 0.13667,-0.31683 -0.2225,-0.54452 -1.1084,-0.8297 -1.36498,-1.35697 -0.0536,-0.1102 0.14846,-0.25933 0.0777,-0.35935 -0.17063,-0.24105 -0.47237,-0.35461 -0.70855,-0.53192 0.27783,-0.66989 -0.1933,-0.75247 -0.55472,-1.2826 -0.0872,-0.12792 -0.0878,-0.30018 -0.16614,-0.43373 -0.81317,-1.38647 -0.0106,0.32618 -0.55945,-0.90788 -0.13915,-0.41577 -0.21418,-0.9023 -0.36765,-1.30183 -0.19795,-0.51533 -0.49959,-0.76425 -0.21897,-1.34316 -0.34136,-0.36359 -1.14662,-1.00673 -1.01017,-1.62355 0.0354,-0.15999 0.31219,-0.24232 0.28117,-0.40321 -0.0477,-0.24759 -0.31515,-0.3937 -0.47273,-0.59054 -0.0127,-0.1655 -0.0253,-0.331 -0.038,-0.4965 -1.07343,-1.6789 -0.0553,0.35157 0.12552,-0.97984 0.0326,-0.24026 -0.29462,-0.39552 -0.37115,-0.6256 -0.0574,-0.17249 0.0159,-0.36649 -0.0182,-0.54504 -0.17291,-0.90457 -0.41214,-0.33136 0.1493,-1.06294 0.44082,-1.02634 -0.0832,-1.00699 0.0409,-1.71355 0.0342,-0.19495 0.32305,-0.30394 0.31748,-0.5018 -0.0631,-2.24388 -0.69511,0.54577 -0.19856,-1.26471 0.0275,-0.39172 0.007,-0.78356 0.22218,-1.13833 0.11345,-0.18685 0.35809,-0.28093 0.44537,-0.48134 0.73106,-1.67863 -0.7841,0.61195 -0.34102,-1.35943 0.0559,-0.2488 0.42447,-0.28273 0.6367,-0.42409 -0.0466,-0.21923 -0.16826,-0.4354 -0.13971,-0.65769 0.0663,-0.51672 1.54837,-1.7569 1.52793,-2.48255 0.002,-0.18992 -0.0522,-0.38936 0.007,-0.56974 0.0584,-0.17703 0.22288,-0.29893 0.32946,-0.45185 0.10292,-0.14766 0.15252,-0.34495 0.2989,-0.44967 0.21182,-0.15155 0.61313,-0.0508 0.72761,-0.28473 0.70874,-1.44838 -1.47526,0.0866 0.25238,-0.9369 0.17991,-0.25914 0.28149,-0.58932 0.52927,-0.78457 0.1729,-0.13625 0.41149,-0.16387 0.59689,-0.28254 0.45423,-0.29074 0.67722,-0.84452 1.24922,-0.97432 0.70417,-1.17091 1.49732,-0.8711 2.32989,-1.82878 0.54332,-0.4461 0.71908,-0.46279 1.32021,-0.7698 0.52378,-0.2675 0.67207,-0.76811 1.37306,-0.72139 0.47009,-0.11913 0.66533,-0.11183 1.04286,-0.39573 0.10409,-0.0783 0.14817,-0.23427 0.26868,-0.28365 0.64388,-0.26383 0.81491,-0.0223 1.33874,-0.62238 0.30634,-0.0941 1.0263,-0.53641 1.2877,-0.55633 0.73138,-0.0557 1.46072,0.10832 2.19122,-0.0906 0.26484,0.002 0.52969,0.004 0.79454,0.006 -0.009,-0.11042 -0.13729,-0.32052 -0.027,-0.33124 0.40744,-0.0396 0.79992,0.19853 1.20889,0.21627 0.0726,0.003 1.10807,-0.29804 1.28337,-0.31119 0.33521,0.0626 0.66578,0.15971 1.00562,0.18784 0.14542,0.012 0.28643,-0.0657 0.43232,-0.0688 0.016,-3.4e-4 1.22027,0.0835 1.27357,0.0904 0.26156,0.0338 0.51618,0.1242 0.77971,0.13435 0.0956,0.004 0.18092,-0.0626 0.27138,-0.0939 0.31533,0.0796 0.63065,0.15927 0.94598,0.2389 0.10177,-0.008 0.20457,-0.0404 0.30532,-0.0239 2.7077,0.44237 5.36246,2.48004 8.03099,2.39618 1.24748,0.47021 2.54045,0.78749 3.79344,1.25786 0.21852,0.0818 0.43705,0.16352 0.65557,0.24529 0.0153,0.0553 -0.002,0.13442 0.0458,0.16579 0.67303,0.43977 1.51048,0.62803 2.19397,1.05751 1.78225,0.70113 0.22777,0.32482 1.14625,0.78066 0.66233,0.32871 1.08332,0.43284 1.6336,0.89177 0.5064,0.40938 1.02248,0.83111 1.56041,1.19376 0.19567,0.13192 0.45583,0.17777 0.61343,0.35342 0.0565,0.063 -0.0535,0.16057 -0.0802,0.24086 0.34519,0.14703 0.71526,0.24571 1.03557,0.4411 0.0979,0.0597 0.096,0.21269 0.17405,0.29676 0.44119,0.47547 1.07841,0.76803 1.38174,1.37852 -0.0333,0.0907 -0.16502,0.20081 -0.0998,0.27201 0.20077,0.21902 0.52736,0.27869 0.76636,0.4552 0.65662,0.48493 0.99082,1.28894 1.73917,1.6604 0.0789,0.26763 0.2178,0.51675 0.28074,0.78858 0.0284,0.12284 -0.0616,0.27669 0.0135,0.37803 0.73099,0.98754 0.61383,0.0858 0.75911,1.35103 -0.0207,0.13607 -0.12518,0.28587 -0.0621,0.40822 0.11952,0.23197 0.38561,0.35341 0.55628,0.55081 0.13882,0.16056 0.9042,1.31847 0.91477,1.50307 0.009,0.15411 -0.16194,0.26283 -0.24291,0.39425 0.116,0.18128 0.23199,0.36256 0.34799,0.54384 -0.0282,0.15065 -0.15384,0.31523 -0.0846,0.45197 0.13578,0.26812 0.51384,0.36409 0.63674,0.63836 0.0655,0.14611 -0.17709,0.30076 -0.14558,0.45774 0.28774,1.43362 0.51074,-0.13614 0.25354,1.0634 -0.33136,1.12932 -0.0591,-0.30441 0.49617,1.16939 0.062,0.16453 -0.15328,0.31997 -0.19089,0.49172 -0.13058,0.59633 0.0656,1.18932 0.2671,1.74096 0.0127,0.15819 0.0777,1.04171 0.11354,1.19344 0.0537,0.22752 0.27521,0.43204 0.23206,0.66179 -0.0408,0.21752 -0.37398,0.28128 -0.4483,0.48975 -0.13956,0.39151 0.26559,0.85497 1.8e-4,1.24692 0.0326,0.22382 0.0941,0.44532 0.0977,0.67147 0.003,0.20736 -0.11102,0.41283 -0.0769,0.61738 0.0428,0.25632 0.38248,0.47318 0.29993,0.71958 -0.0859,0.25649 -0.60044,0.17671 -0.68618,0.43327 -0.15215,0.4553 0.72458,0.86117 0.44786,1.36874 0.0199,2.60867 0.12037,-1.38758 -0.39705,1.10055 -0.0452,0.21745 0.28697,0.45896 0.16607,0.64527 -0.16074,0.24768 -0.72126,0.071 -0.81302,0.35162 -0.14066,0.43021 0.94344,0.72822 0.44325,1.28347 -1.32206,0.98734 0.0908,0.75272 -0.56253,1.49343 -0.15677,0.17774 -0.54798,0.125 -0.61811,0.35139 -0.66799,2.15631 1.28584,-0.59791 -0.0347,1.0809 0.78599,1.39066 -0.0434,0.61142 -0.0965,1.5228 -0.011,0.18963 0.22029,0.36046 0.17046,0.54376 -0.57111,2.10085 -0.37421,-1.22307 -0.42499,0.8075 0.0786,1.31126 0.0994,-0.47326 -0.42778,0.77063 -0.0637,0.15028 0.0973,0.31345 0.1171,0.47547 0.0552,0.45109 -0.19408,0.7633 -0.23937,1.1993 -0.0549,0.25067 -0.23749,0.47289 -0.24634,0.72935 -0.0186,0.53876 0.30926,0.27486 0.0937,0.77328 -0.0515,0.11908 -0.24631,0.17766 -0.23899,0.30718 0.01,0.16949 0.1869,0.28344 0.28035,0.42515 0.36577,1.07319 -0.0984,-0.67026 -0.69474,0.47955 -0.10505,0.20254 0.41225,0.24335 0.52102,0.44392 0.1168,0.21537 -0.54913,0.49563 0.54514,1.00692 -0.051,0.0808 -0.16022,0.1471 -0.15299,0.24237 0.0387,0.50947 1.56185,1.04521 1.79176,1.59696 0.39744,0.54604 -0.0469,0.018 0.81708,0.59055 0.62718,0.41559 1.2334,0.90966 1.94273,1.21555 -0.0851,0.0588 -0.28675,0.078 -0.25518,0.17644 0.16403,0.51155 2.08859,0.84978 2.18684,1.50711 0.26696,0.12597 0.55531,0.2141 0.80088,0.37791 0.0916,0.0611 0.0906,0.2129 0.18033,0.27659 0.22205,0.15756 0.59877,0.12945 0.72894,0.3686 0.0747,0.13727 -0.54539,0.0477 -0.4397,0.1628 0.23664,0.25776 0.64407,0.27373 0.9661,0.4106 0.0633,0.093 0.12663,0.18609 0.18995,0.27914 0.48049,0.21013 1.19005,0.26179 1.3834,0.74927 0.0349,0.0879 -0.2335,0.13316 -0.18548,0.21461 0.21034,0.35678 0.98659,0.48446 1.15761,0.92593 0.29177,0.12974 0.61261,0.20769 0.87531,0.38921 0.0641,0.0443 -0.034,0.18095 0.0244,0.23249 0.17607,0.15525 0.42059,0.2103 0.61935,0.33518 0.44712,0.28093 0.72629,0.7363 1.27501,0.86891 0.566,0.61643 -0.24437,-0.20886 0.80927,0.54683 0.0723,0.0519 0.0778,0.16665 0.14649,0.2232 0.48188,0.39652 1.142,0.48384 1.65047,0.83688 0.32997,0.51677 0.98612,0.48482 1.46857,0.80237 0.0512,0.0337 -0.0419,0.15444 0.0121,0.18335 0.50591,0.27089 1.11984,0.29545 1.60779,0.61559 -0.0228,0.0579 -0.12073,0.14021 -0.0683,0.17366 0.25056,0.15979 0.56782,0.18284 0.83411,0.31475 0.18243,0.0904 0.23917,0.35297 0.42292,0.44062 1.10262,0.52601 0.95916,-0.033 1.04696,0.54189 0.40707,0.23565 0.88225,0.34215 1.28121,0.59128 0.0544,0.034 -0.0288,0.13949 0.008,0.19232 0.3513,0.5098 1.15207,0.48185 1.6168,0.83549 0.27098,0.10414 0.54197,0.20829 0.81296,0.31243 -0.093,0.0464 -0.36458,0.0805 -0.27883,0.13915 0.29201,0.19965 0.68128,0.20146 1.00036,0.35416 0.42534,0.20353 0.6516,0.88881 1.28742,0.77474 0.0675,0.0723 0.16426,0.12558 0.20235,0.2168 0.0231,0.0552 -0.0886,0.14246 -0.0386,0.17534 0.2283,0.1501 0.51604,0.18281 0.76254,0.30067 0.51895,0.24812 0.93428,0.70654 1.53778,0.79409 0.98543,0.56471 1.96594,1.09593 2.97342,1.6139 0.24594,0.56408 0.99533,0.43078 1.42312,0.81172 0.0476,0.0424 -0.12812,0.13307 -0.0793,0.17405 0.27949,0.23457 0.72188,0.21523 0.96108,0.52399 0.4239,0.22357 0.89693,0.34928 1.31035,0.5917 0.066,0.0387 0.0477,0.15163 0.10201,0.20547 0.44363,0.43985 1.13952,0.36992 1.57247,0.81899 0.55327,0.2631 0.93977,0.7041 1.50949,0.95947 0.29636,0.13284 0.62062,0.19454 0.92064,0.31888 0.14197,0.0588 0.26691,0.15239 0.40037,0.22859 0.34982,0.54863 2.11574,0.85362 2.72447,1.38271 0.50468,0.21254 0.68746,0.42187 1.16876,0.63219 1.89033,0.82601 -0.87599,-0.42226 1.41355,0.5157 0.12161,0.0498 0.22723,0.13213 0.34085,0.19819 0.98033,0.5226 1.99943,0.91261 3.03049,1.32021 0.9815,0.46332 1.93925,0.85822 2.86991,1.30443 0.983,0.40878 1.90023,0.88367 2.81971,1.29992 0.36443,0.19636 0.8064,0.24053 1.14733,0.47533 0.0632,0.0435 -0.26401,0.0975 -0.19274,0.12603 0.4613,0.1845 0.98593,0.17874 1.4428,0.37394 0.10865,0.0464 -0.22733,0.0645 -0.341,0.0968 0.2756,0.0936 0.55121,0.18726 0.82681,0.28089 0.11003,0.10343 0.17269,0.27187 0.31312,0.32742 0.47048,0.18608 1.90909,0.25723 2.04892,0.86984 0.57739,0.23876 1.16076,0.47183 1.72713,0.71013 0.28092,0.11819 0.61816,0.1173 0.86511,0.2959 0.0903,0.0653 -0.41123,0.0363 -0.31913,0.099 0.26054,0.17719 0.59874,0.19652 0.89812,0.29478 0.44214,0.60953 1.57746,0.5323 1.94942,1.21071 0.45399,0.22873 0.94789,0.35489 1.38062,0.62387 0.11404,0.0709 0.15487,0.23074 0.27115,0.29789 0.17841,0.10304 0.38318,0.15157 0.57477,0.22735 0.29016,0.14546 0.73993,0.52445 0.89288,0.59948 0.59998,0.29433 0.9819,0.1931 0.31464,0.27761 0.14659,0.0663 1.66458,0.7664 0.21635,0.58348 -2.03073,-0.25649 -3.96697,-0.42426 -5.87924,-1.00299 0.0537,-0.0141 0.15912,0.0132 0.16107,-0.0423 0.006,-0.18402 -1.87914,-0.75717 -2.05157,-0.92227 -1.04514,-0.50868 -1.98316,-1.17091 -3.08162,-1.52446 -0.89027,-0.59696 -1.90995,-0.949 -2.8255,-1.5135 -0.0899,-0.0296 -1.21823,-0.30953 -1.45939,-0.59747 -0.0387,-0.0462 0.10169,-0.14412 0.0493,-0.1739 -0.55835,-0.31734 -1.20981,-0.39807 -1.70927,-0.8314 -0.32539,-0.20692 -0.69809,-0.33341 -1.02015,-0.54548 -0.0735,-0.0484 -0.07,-0.18176 -0.15073,-0.21664 -0.39366,-0.17 -1.63048,-0.43945 -2.08962,-0.72722 -0.0576,-0.0361 -0.0183,-0.13459 -0.0275,-0.20188 -1.07102,-0.54963 -2.29584,-0.94454 -3.22622,-1.7034 -0.69761,-0.30961 -1.34998,-0.77595 -2.05112,-1.05559 -0.3794,-0.15132 -0.79283,-0.20912 -1.16797,-0.37071 -0.0875,-0.0377 -0.12634,-0.14268 -0.18951,-0.21402 -0.33833,-0.1146 -0.69982,-0.17569 -1.015,-0.34381 -0.0563,-0.03 0.0639,-0.15288 0.0127,-0.19082 -0.19611,-0.14526 -0.45127,-0.18705 -0.66973,-0.29585 -0.73533,-0.36623 -1.26823,-0.86641 -2.16178,-0.94085 -0.56368,-0.91145 -2.17817,-0.69218 -2.74794,-1.7224 -0.11855,-0.0474 -1.37478,-0.53865 -1.51658,-0.6348 -0.14437,-0.0979 0.11749,-0.49827 -0.28616,-0.43813 -0.5108,-0.25605 -1.09788,-0.34127 -1.58005,-0.66463 0.0299,-0.0636 0.14775,-0.15115 0.0897,-0.19076 -0.26655,-0.18191 -0.6101,-0.2158 -0.89827,-0.36104 -0.13246,-0.0668 -0.22037,-0.20505 -0.35374,-0.26999 -0.95673,-0.4658 -0.88861,-0.31486 -1.55239,-0.92339 -1.13588,-0.60516 -2.13757,-1.42878 -3.31896,-1.95511 -0.21427,-0.54518 -0.95018,-0.66351 -1.42534,-0.90615 -0.688,-0.35132 -0.35992,-0.62458 -1.22301,-0.84587 -0.2659,-0.16899 -0.49923,-0.3907 -0.77962,-0.53437 -0.71306,-0.36537 -1.48555,-0.50705 -2.01066,-1.14812 -0.54539,-0.59295 0.12617,0.0639 -1.21979,-0.62864 -0.10128,-0.0521 -0.13967,-0.18504 -0.23376,-0.24922 -0.52261,-0.35651 -1.15754,-0.55258 -1.68585,-0.90218 0.01,-0.0649 0.0789,-0.1514 0.0296,-0.19474 -0.16683,-0.14658 -0.40774,-0.18071 -0.59418,-0.30136 -0.6906,-0.44688 -1.3641,-0.91946 -2.18042,-1.16924 0.0199,-0.0633 0.11526,-0.15384 0.0596,-0.18997 -0.27004,-0.17531 -0.62239,-0.18886 -0.89842,-0.35458 -0.0593,-0.0356 0.0224,-0.16372 -0.0332,-0.20476 -0.48442,-0.35718 -1.18198,-0.42569 -1.63399,-0.8521 -0.1028,-0.68274 0.0714,0.0858 -1.35455,-0.59544 -0.0625,-0.0299 0.15796,-0.11888 0.11495,-0.17321 -0.10887,-0.13752 -0.32897,-0.1405 -0.45765,-0.25968 -0.0458,-0.0424 -0.0155,-0.12385 -0.0233,-0.18577 -0.35582,-0.11681 -0.71163,-0.23362 -1.06745,-0.35043 -0.41243,-0.4177 -1.00528,-0.46589 -1.49312,-0.78798 -0.17982,-0.11872 -0.28406,-0.33406 -0.46863,-0.44526 -0.20021,-0.12062 -0.42785,-0.18838 -0.64177,-0.28258 -0.19857,-0.0906 -0.39715,-0.18118 -0.59572,-0.27177 0.009,-0.0552 0.0718,-0.13364 0.0259,-0.16558 -0.60064,-0.41842 -1.42463,-0.57181 -2.01987,-1.02155 -0.0175,-0.0627 0.004,-0.15611 -0.0525,-0.18798 -0.25848,-0.14523 -0.56291,-0.18924 -0.83371,-0.30995 -0.61557,-0.27441 -1.12536,-0.79105 -1.78287,-1.00496 -0.33401,-0.51418 -1.02798,-0.41929 -1.49918,-0.77143 -0.0437,-0.0327 0.0528,-0.13686 0.005,-0.16372 -0.2555,-0.14438 -0.55161,-0.20059 -0.82741,-0.30088 -0.12278,-0.0774 -0.24557,-0.15474 -0.36835,-0.23211 -0.44829,-0.50815 0.21048,0.17765 -0.96414,-0.49031 -0.0539,-0.0306 8.5e-4,-0.13964 -0.046,-0.18025 -0.39018,-0.33813 -0.98623,-0.41514 -1.39308,-0.73213 -0.40366,-0.16722 -1.23245,-0.43631 -1.57612,-0.71966 -0.0429,-0.0354 0.12824,-0.0898 0.097,-0.13577 -0.071,-0.1045 -0.72173,-0.39099 -0.77722,-0.41723 -0.35373,-0.16088 -0.79399,-0.17261 -1.08233,-0.43312 -0.0725,-0.0655 0.36277,-0.032 0.28061,-0.0849 -0.45684,-0.29408 -1.19852,-0.30271 -1.66076,-0.63166 -0.42145,-0.21121 -0.81671,-0.49813 -1.26438,-0.65588 -0.23,-0.081 -0.48398,-0.0972 -0.7016,-0.20728 -0.0452,-0.0229 0.0849,-0.0554 0.12739,-0.0831 -0.41173,-0.14796 -0.86468,-0.18436 -1.25679,-0.37842 -0.0775,-0.0384 0.28293,0.0311 0.2544,-0.0505 -0.0291,-0.0832 -0.8177,-0.33494 -0.82635,-0.33817 -0.24191,-0.13615 -1.06612,-0.31024 -0.80072,-0.22889 1.82951,0.56078 3.66402,1.10537 5.50189,1.63811 0.14158,0.041 -0.2715,-0.11569 -0.41127,-0.16251 -0.11759,-0.0394 0.46521,0.26214 0.37197,0.008 -0.84033,-1.02922 -0.24606,-0.0321 0.17002,-0.54293 0.0344,-0.0422 -1.04724,-0.0845 -0.28943,0.0942 0.89158,0.29467 1.695,0.91774 2.67533,1.10634 0.96216,0.52678 1.83421,1.19876 2.92398,1.48667 0.43147,0.36756 0.93279,0.49653 1.41945,0.77469 0.10374,0.0593 0.1691,0.17648 0.27734,0.22709 0.2958,0.13833 0.63289,0.18 0.92118,0.33338 0.0679,0.0361 0.0655,0.13931 0.0982,0.20896 0.97451,0.50285 1.89986,1.05975 2.77016,1.72887 0.30957,0.13815 0.64991,0.22161 0.92872,0.41447 0.0759,0.0525 0.002,0.19912 0.0607,0.26995 0.53008,0.6355 1.41861,0.9734 2.06262,1.46117 -0.23751,0.80694 0.0247,-0.41883 0.95426,0.77541 0.10744,0.13802 -0.56704,0.0668 -0.47768,0.2171 0.0529,0.0891 1.59825,0.88992 1.77301,1.33705 0.0714,0.10648 0.49296,0.72489 0.54264,0.83991 0.0549,0.12712 0.0111,0.29328 0.0931,0.40483 0.1579,0.21472 0.4306,0.32393 0.59633,0.53266 0.10442,0.1315 0.13021,0.30956 0.19531,0.46434 0.18804,0.18433 0.37609,0.36865 0.56414,0.55298 0.0562,0.44091 0.2165,1.1081 0.50255,1.46322 0.19846,0.24639 0.54793,0.35886 0.70872,0.63134 0.16372,0.27744 -0.30993,0.68395 -0.0596,0.96459 0.20171,0.21432 0.45418,0.39031 0.60512,0.64297 0.0925,0.15486 0.0549,0.357 0.097,0.53241 0.2086,0.86885 0.52492,1.72915 1.1787,2.35375 -1.13118,0.84358 -0.18821,-0.12011 0.51072,1.14718 0.0931,0.1688 -0.44135,0.25438 -0.37899,0.43678 0.11355,0.33216 0.62059,0.39906 0.77285,0.71535 0.15282,0.31747 -0.64313,0.68068 -0.15238,1.04596 0.18759,0.23064 0.37518,0.46127 0.56277,0.6919 0.0146,0.19042 -0.0511,0.4056 0.0439,0.57126 0.16751,0.29196 0.62215,0.39969 0.70089,0.72696 0.0488,0.20267 -0.44916,0.2643 -0.41298,0.46958 0.0556,0.31556 0.41635,0.48716 0.62453,0.73074 0.01,0.19418 0.0193,0.38836 0.0289,0.58255 0.0324,1.46864 0.85943,1.21829 1.01714,1.97977 0.0425,0.20508 -0.3365,0.27733 -0.41547,0.4713 -0.14825,0.36414 0.13366,0.817 -0.0746,1.17713 0.13469,0.23944 0.31751,0.45759 0.40406,0.71832 0.0659,0.19835 -0.005,0.42187 0.0421,0.62556 0.0559,0.24328 0.28211,0.45246 0.26252,0.70129 -0.0172,0.21903 -0.32857,0.3341 -0.36115,0.55137 -0.0688,0.45912 0.44284,0.89385 0.19626,1.37885 -0.71395,1.73925 0.13008,-0.80932 0.33818,1.46767 0.022,0.24104 -0.36692,0.33725 -0.46292,0.55944 -0.18884,0.43705 -0.21075,1.60374 -0.0673,2.05813 0.30875,1.36407 0.26054,0.17968 -0.37638,1.27131 -0.49708,0.85198 0.14629,0.56667 0.26488,1.44788 0.0292,0.21731 -0.1476,0.41297 -0.21784,0.62067 -0.0699,0.20679 -0.13512,0.41515 -0.20268,0.62272 0.1077,0.63914 0.25276,0.75059 -0.11872,1.32164 -0.13215,0.20315 -0.45286,0.29037 -0.49967,0.52816 -0.14376,0.73033 0.91249,1.10408 -0.0949,1.97948 0.35356,2.21413 0.0655,-1.02728 -0.75646,1.09658 -0.10626,0.27453 0.46054,0.49166 0.41074,0.78179 -0.0439,0.25543 -0.55944,0.21231 -0.62447,0.46319 -0.48696,1.87862 1.25674,-0.23449 -0.16931,1.24434 -1.45009,2.46302 1.11325,-2.27007 0.28073,1.37185 -0.07,0.30629 -0.60497,0.19252 -0.87175,0.3585 -0.71013,0.44178 -0.39583,0.42794 -0.4638,1.10783 -0.0205,0.20541 -0.0893,0.4031 -0.13389,0.60466 -0.11789,0.55329 -0.64767,1.73252 -0.99239,2.17793 -0.13514,0.17461 -0.36911,0.25731 -0.49839,0.4363 -0.10821,0.14984 -0.12823,0.34672 -0.19234,0.52007 0.0641,0.21402 0.27774,0.43561 0.19236,0.64207 -0.0957,0.23144 -1.32744,0.72231 -1.4671,1.19213 -0.0577,0.1941 0.16661,0.41481 0.0874,0.60116 -0.0837,0.19679 -0.33931,0.26034 -0.50896,0.39051 -0.0883,0.15442 -0.22165,0.29071 -0.26492,0.46325 -0.0444,0.17683 0.11934,0.39974 0.0116,0.5468 -0.14598,0.19925 -0.45395,0.20088 -0.65962,0.33768 -0.50264,0.33432 -0.78987,0.77404 -0.8283,1.37417 -0.39029,0.90411 -0.83589,0.55071 -1.30488,1.23833 -0.0982,0.14394 -0.0559,0.36106 -0.16698,0.4953 -0.65736,0.79446 -0.67835,-0.11677 -0.40634,0.99138 -0.42322,0.40834 -1.01922,0.75981 -1.39447,1.20292 -0.33277,0.39293 -0.45354,1.00331 -0.87969,1.34053 -0.27799,0.12601 -0.98178,0.30513 -1.03728,0.76751 -0.0269,0.22414 0.30869,0.45297 0.19564,0.64838 -0.36373,0.62869 -1.75581,0.0406 -1.52416,1.18178 -1.87743,1.02516 0.22866,-0.37828 -0.58798,0.95985 -0.12775,0.20931 -0.5154,0.14822 -0.64281,0.35774 -0.1072,0.17631 0.15693,0.44046 0.0501,0.617 -0.22368,0.36964 -0.94538,0.2395 -1.02022,0.79944 -0.12545,0.14344 -0.22296,0.31726 -0.37635,0.43032 -0.20221,0.14906 -0.51997,0.14175 -0.67151,0.34211 -0.18513,0.24476 0.23121,0.85069 -0.23734,1.03285 -0.38821,0.15092 -0.98878,-0.22882 -1.24563,0.0991 -0.19592,0.25011 0.37945,0.50966 0.56918,0.76449 -0.24004,0.0979 -0.49833,0.15963 -0.72014,0.29385 -0.17271,0.10451 -0.27674,0.29916 -0.44476,0.41106 -0.2032,0.13534 -0.50127,0.13526 -0.65737,0.32298 -0.42132,0.50665 0.43618,1.03535 -1.21445,1.23563 -0.0777,0.14904 -0.19607,0.28318 -0.2332,0.44712 -0.0405,0.17887 0.12649,0.41074 0.007,0.55013 -0.31613,0.36976 -0.96672,0.25086 -1.35343,0.54601 -0.12745,0.0973 -0.16875,0.27265 -0.25312,0.40897 -0.16051,0.11358 -0.32101,0.22715 -0.48152,0.34072 -0.12919,0.24357 -0.46201,1.17126 -0.74216,1.26297 -0.37821,0.12382 -0.81922,-0.0602 -1.19109,0.0815 -0.33684,0.12836 0.0397,1.08314 -0.77425,0.75493 -1.28174,0.43226 -0.35701,-0.0732 -0.94275,0.69799 -0.11057,0.14559 -0.29792,0.22089 -0.40708,0.36754 -0.0999,0.13426 -0.0607,0.37614 -0.20694,0.45744 -0.27219,0.15127 -0.65602,0.001 -0.91892,0.16828 -0.13895,0.0882 -0.0706,0.32153 -0.10583,0.48229 -0.2596,0.0679 -0.53709,0.0873 -0.77879,0.20384 -0.19286,0.093 -0.99373,0.84749 -1.14862,1.02789 -0.10325,0.12026 -0.1221,0.31385 -0.25372,0.40216 -0.19768,0.13264 -0.45226,0.14883 -0.67839,0.22324 -2.22239,0.35255 -0.0966,0.59752 -1.03951,1.11201 -0.65039,0.35486 -1.63881,-0.10978 -1.91089,0.7893 -0.18252,0.0857 -0.93499,0.42477 -1.10368,0.55969 -0.11961,0.0957 -0.14352,0.30062 -0.28428,0.36098 -0.57284,0.24562 -1.55493,-0.10298 -1.29674,0.85791 -0.12763,0.038 -1.14096,0.33469 -1.28297,0.39749 -0.7075,0.31287 -1.15634,1.03524 -2.03054,1.02682 -0.4579,0.76411 0.086,0.0527 -0.94061,0.58583 -0.14006,0.0727 -0.19319,0.26271 -0.33229,0.33728 -0.2114,0.11333 -0.48282,0.0861 -0.6883,0.20985 -0.1272,0.0766 -0.17357,0.24097 -0.26035,0.36145 -0.17376,0.0898 -0.34751,0.17951 -0.52126,0.26926 -0.5135,0.0614 -1.02805,0.0578 -1.49298,0.32148 -0.12951,0.0734 -0.22941,0.1936 -0.31938,0.31222 -0.0849,0.1119 -0.068,0.32101 -0.19913,0.37135 -1.45346,0.55802 -0.55647,-0.40674 -1.19029,0.39534 -0.23283,0.0564 -0.46308,0.12487 -0.69849,0.16931 -0.26067,0.0492 -0.57747,-0.0501 -0.78799,0.11126 -0.12062,0.0925 0.18543,0.38023 0.052,0.45303 -0.57597,0.3143 -1.43629,-0.31599 -1.74155,0.54611 -0.73868,0.70549 -1.18656,0.176 -1.73837,0.53769 -0.12066,0.0791 0.16539,0.32791 0.0618,0.42837 -1.52088,1.47544 -0.10854,-0.81332 -0.84769,0.48746 -1.94316,-0.009 -0.72681,0.32362 -1.6232,0.56059 -0.59287,0.15674 -1.32114,-0.19755 -1.53641,0.57708 -0.55696,-0.002 -1.03024,-0.15754 -1.4758,0.21332 -0.0973,0.081 -0.0813,0.29113 -0.20452,0.32003 -0.34632,0.0812 -0.71127,-0.0146 -1.06691,-0.0219 -0.0445,0.1219 -0.036,0.28023 -0.13361,0.3657 -0.13588,0.11893 -0.33721,0.1293 -0.50581,0.19396 -0.41627,0.14529 -0.70758,0.27104 -1.15459,0.32329 -0.28822,0.0337 -0.59453,-0.0537 -0.86969,0.0384 -0.0406,0.0136 -0.7043,0.83844 -0.8653,0.86997 -0.5131,0.23631 -1.05605,0.42678 -1.61084,0.54447 -0.26342,0.0559 -1.32488,0.17637 -1.37066,0.24448 -0.0984,0.14641 0.14751,0.3205 0.22126,0.48075 -0.35559,-0.0249 -0.7132,-0.1201 -1.06677,-0.0747 -0.15518,0.0199 -0.42342,0.45064 -0.53349,0.52308 -0.56032,0.36881 -1.30006,0.33167 -1.92135,0.27163 -0.90961,0.76099 0.19144,-0.29927 -0.24451,0.59978 -0.35114,0.72417 -1.6868,-0.35461 -2.06626,0.4785 -0.76576,0.60384 -1.7767,0.25567 -2.57053,0.79297 -0.21265,0.78376 -0.79251,-0.0939 -1.2839,0.27771 -0.16063,0.12146 0.55584,0.27639 0.42494,0.42942 -1.51511,1.77117 -0.48492,-0.76701 -0.83467,0.15786 -0.47238,0.66933 -0.72602,0.20072 -1.02002,0.41953 -0.10323,0.0768 0.32558,0.1886 0.19256,0.33461 -0.0798,0.0304 -0.12844,0.14062 -0.21384,0.14113 -0.10839,6.4e-4 -0.40481,-0.14172 -0.31485,-0.0813 0.16126,0.10838 0.39442,0.0627 0.55066,0.19113 -1.70654,-0.51099 -3.41307,-1.02198 -5.11961,-1.53297 -0.91554,-0.4383 0.50141,0.22605 0.53414,0.16388 0.13297,-0.25254 -2.77957,-1.0437 0.81825,0.10723 0.13069,0.0117 -0.17288,-0.19744 -0.25932,-0.29616 0.18991,-0.003 0.37981,-0.007 0.56971,-0.0105 0.0174,-0.0897 -0.0337,-0.23774 0.0521,-0.26903 0.24034,-0.0876 0.59194,0.15707 0.76688,-0.0296 0.12529,-0.13368 -0.43421,-0.30216 -0.32096,-0.44618 1.02794,-1.30729 0.58798,0.71413 0.76834,-0.36362 0.25675,-0.0189 0.53446,0.0467 0.77026,-0.0567 0.0966,-0.0423 0.0291,-0.21044 0.0652,-0.30949 0.0369,-0.10109 0.13879,-0.17818 0.1515,-0.28502 0.0644,-0.54159 -0.24553,-0.58916 0.48737,-0.89962 -1.05404,-1.11873 0.2995,-0.35344 0.4175,-0.91025 0.097,-0.45771 -1.23807,-0.63057 -0.38052,-1.11809 -0.24537,-0.1683 -0.50725,-0.31475 -0.73611,-0.50489 -0.14319,-0.11896 -0.5096,-0.29022 -0.37247,-0.41612 0.2296,-0.2108 0.67365,0.0812 0.93014,-0.0959 0.12785,-0.0883 -1.10123,-0.89799 -0.92758,-1.1233 -0.21573,-0.1435 -0.43146,-0.28701 -0.64719,-0.43052 0.12154,-0.0782 0.43064,-0.10608 0.36463,-0.23467 -0.22013,-0.42879 -2.1645,-1.01957 -2.46672,-1.61263 0.022,-0.0906 0.13562,-0.20968 0.066,-0.27164 -0.24084,-0.21439 -0.59312,-0.26065 -0.8627,-0.43755 -0.12947,-0.0849 -0.19758,-0.24157 -0.31891,-0.33778 -0.1846,-0.14638 -0.42699,-0.21757 -0.59268,-0.38504 -0.0694,-0.0702 -0.0482,-0.19139 -0.0723,-0.28708 -0.27571,-0.13359 -0.55142,-0.26719 -0.82712,-0.40078 -0.54844,-0.26932 -1.37733,-0.72975 -1.79336,-1.21581 -0.047,-0.0549 0.0202,-0.17527 -0.0415,-0.21283 -0.2669,-0.16237 -0.58145,-0.22869 -0.87217,-0.34303 -0.39941,-0.20416 -0.83892,-0.33404 -1.21497,-0.57856 -0.0622,-0.0404 -0.0418,-0.15285 -0.10013,-0.19869 -0.51996,-0.40885 -1.27786,-0.57067 -1.86733,-0.8052 -0.23647,-0.0921 -0.47293,-0.18426 -0.70939,-0.27639 -0.0481,-0.0639 -0.0733,-0.15487 -0.1443,-0.19159 -0.24117,-0.12473 -0.5171,-0.16883 -0.76533,-0.27883 -0.11837,-0.0524 -0.24679,-0.10629 -0.32916,-0.20618 -0.0318,-0.0386 0.0856,-0.12436 0.0399,-0.1446 -0.33772,-0.14947 -0.70939,-0.2058 -1.06409,-0.30871 -1.22143,-0.40885 -2.32986,-1.04954 -3.56829,-1.36925 -0.88966,-0.65023 -2.17462,-0.58241 -3.09573,-1.19432 -0.24017,-0.0722 -0.48034,-0.14437 -0.72051,-0.21656 -0.0924,-0.0494 -0.17831,-0.1136 -0.27717,-0.14837 -0.25285,-0.0889 -1.02922,-0.30008 -0.77312,-0.22101 8.34247,2.57577 5.11572,1.55473 3.30579,1.02892 -1.35168,-0.42215 -2.64799,-0.76035 -4.00396,-1.11487 -1.30025,-0.22658 -2.55483,-0.62325 -3.83959,-0.91975 -1.4551,-0.23509 -2.8699,-0.62493 -4.28482,-1.0239 -0.3945,0.50388 -1.26199,-0.22359 -1.87936,-0.39203 -0.0856,-0.0234 -0.17566,0.0541 -0.26316,0.0395 -2.83934,-0.47292 0.70077,-0.0486 -1.34326,-0.27749 -1.24548,-0.34266 -2.41902,-0.52223 -3.69697,-0.70306 -1.30053,-0.38099 -2.68792,-0.67797 -4.01643,-0.87603 -0.23603,-0.0249 -0.48261,0.0356 -0.71148,-0.0272 -0.98447,-0.2702 -1.90364,-0.63485 -2.93637,-0.71919 -1.61966,-0.24313 1.55018,0.26359 -1.66625,-0.49019 -0.0448,-0.0105 -0.008,0.0917 -0.0113,0.13749 -0.17474,-0.0287 -0.34948,-0.0573 -0.52422,-0.086 -0.36722,-0.10273 -0.70999,-0.29219 -1.08449,-0.36399 -0.0549,-0.0105 0.0254,0.1089 0.038,0.16335 -0.7603,-0.16127 -1.56225,-0.2889 -2.30851,-0.50237 -0.33635,-0.0962 -0.65437,-0.25684 -0.9968,-0.32848 -0.0413,-0.009 -0.047,0.0701 -0.0706,0.10515 -0.62667,-0.18993 -1.32236,-0.40357 -1.96689,-0.52073 -0.0905,-0.0165 -0.18604,0.0411 -0.2752,0.0186 -0.34221,-0.0863 -0.65799,-0.2638 -1.00242,-0.34072 -0.0381,-0.009 -0.0339,0.0703 -0.0508,0.10548 -0.29882,-0.10283 -2.13182,-0.58931 -2.40097,-0.62149 -0.0652,-0.008 0.0614,0.11602 0.0922,0.17403 -0.28323,-0.0955 -0.56645,-0.19096 -0.84968,-0.28643 -1.03115,-0.18428 -2.01304,-0.52435 -3.04404,-0.68182 -0.66804,0.11106 0.0549,0.0294 -1.35743,-0.35594 -0.71555,-0.19526 0.11635,0.11731 -0.27728,0.11599 -0.39487,-10e-4 -0.76245,-0.28817 -1.15039,-0.28264 -0.57864,-0.0414 -1.01699,-0.29411 -1.58525,-0.3743 -0.0869,-0.0123 0.26792,0.16977 0.18248,0.18995 -0.25552,0.0604 -0.50392,-0.25618 -0.77496,-0.1408 -1.0608,-0.31842 -1.47842,-0.18906 -2.07543,-0.47938 0.27361,0.19178 0.17822,0.10477 -0.35647,-0.0584 -1.90016,-0.5797 -3.80069,-1.15821 -5.70104,-1.73732 0.0952,-0.0257 0.27305,0.0208 0.2855,-0.0769 0.0305,-0.23945 -0.0983,-0.47265 -0.14745,-0.70898 -0.30012,-0.21066 -0.10322,-0.0533 0.32076,0.0594 0.62622,0.16645 -0.26211,-0.16701 -0.0699,-0.20072 0.37068,-0.065 0.72275,0.32542 1.10772,0.21829 0.0301,-1.2e-4 0.84232,0.002 0.8513,-0.0209 0.0578,-0.14756 -0.44398,-0.38866 -0.28575,-0.37995 0.56597,0.0312 1.07463,0.39785 1.63862,0.45446 0.2495,0.025 -0.33448,-1.341 0.67039,-0.34133 0.32763,0.0369 0.65328,0.10295 0.98289,0.11057 1.23166,0.0285 -0.15692,-0.25812 1.34001,-0.0627 0.44539,0.0581 0.87366,0.23415 1.32204,0.2608 0.32615,0.0194 0.57198,-0.47188 0.9495,-0.24336 0.27456,0.0113 0.54911,0.0225 0.82367,0.0338 0.16695,-0.0374 0.32978,-0.10944 0.50086,-0.11232 0.31761,-0.005 0.63158,0.1023 0.94892,0.0879 0.14911,-0.007 0.27357,-0.13348 0.42192,-0.15 0.41963,-0.0467 1.38898,0.0728 1.7635,0.10911 0.33679,0.0367 0.67358,0.0734 1.01037,0.11005 0.0348,-0.0993 0.004,-0.26628 0.10429,-0.29786 1.03874,-0.32697 2.27057,0.69591 3.24122,0.0574 0.26131,-0.0431 0.9779,-0.17414 1.22889,-0.15893 0.40135,0.0243 0.79136,0.17022 1.19341,0.17563 0.56401,0.008 1.0996,-0.70583 1.72079,-0.31963 0.92805,0.12038 1.10458,0.20516 1.94847,0.12894 0.61002,-0.0551 1.22909,-0.27166 1.83399,-0.31411 0.30447,-0.0214 0.6102,0.0171 0.91529,0.0256 0.61223,0.0292 1.82457,0.29734 2.39886,-0.0563 0.0924,-0.0569 0.0179,-0.27253 0.12242,-0.30145 0.53206,-0.14724 1.12179,0.19394 1.65614,0.008 0.48223,-0.0646 0.98475,0.0254 1.45665,-0.0931 0.1162,-0.0292 0.13138,-0.23194 0.24776,-0.26035 0.27311,-0.0667 0.56535,0.0357 0.84336,-0.006 0.15637,-0.0235 0.29095,-0.12393 0.43642,-0.18589 0.24321,-0.0213 0.48642,-0.0427 0.72962,-0.064 0.84347,-0.0712 1.55365,-0.44293 2.41426,-0.5233 0.30754,-0.0287 0.62084,0.0339 0.92658,-0.01 0.17755,-0.0255 0.33431,-0.13016 0.50146,-0.19523 -0.025,-0.14687 -0.21191,-0.38209 -0.0749,-0.4406 0.32417,-0.13844 0.70668,0.0577 1.05727,0.0211 0.19789,-0.0207 0.36876,-0.162 0.56566,-0.19057 0.32069,-0.0465 0.66529,0.0732 0.97159,-0.0325 0.27305,-0.0943 0.0413,-0.81141 0.61547,-0.61007 2.38816,-0.37208 -0.22939,0.20476 1.04047,-0.44341 0.71599,-0.36546 1.71453,-0.14004 2.2138,-0.92477 0.39087,0.004 0.8007,0.13377 1.1726,0.0134 0.13794,-0.0447 0.002,-0.31432 0.0964,-0.42415 0.53393,-0.61949 1.72452,-0.24173 1.5741,-1.18182 1.60447,-0.17054 0.49885,-0.35197 1.54331,-0.70895 0.98193,-0.3356 0.74393,-0.009 1.4265,-0.80154 0.27617,-0.20749 1.00691,-0.76514 1.31043,-0.86501 0.28708,-0.0945 0.65926,0.058 0.89763,-0.12776 0.13208,-0.10294 -0.21354,-0.36615 -0.10278,-0.49174 0.16212,-0.18382 0.47256,-0.13031 0.70884,-0.19546 0.0532,-0.13932 0.0557,-0.31088 0.15947,-0.41796 0.13286,-0.13707 0.36582,-0.13872 0.50584,-0.26846 0.10898,-0.10096 0.0773,-0.32475 0.20886,-0.39371 0.94594,-0.4957 0.90726,0.21961 1.22061,-0.98351 0.0247,-0.006 1.55325,-0.34298 1.6073,-0.38561 0.12468,-0.0983 -0.0168,-0.34053 0.0744,-0.47057 0.10759,-0.15347 0.3425,-0.17073 0.4709,-0.30727 1.40158,-1.49058 -1.2253,0.75986 0.63847,-0.76816 0.13606,-0.11291 0.27211,-0.22581 0.40817,-0.33871 0.0128,-0.16033 -0.0596,-0.35344 0.0384,-0.48099 0.41155,-0.53577 0.92271,-0.0648 1.41671,-0.46106 0.12773,-0.10245 -0.0575,-0.328 -0.0341,-0.49005 0.0221,-0.15281 0.11174,-0.28789 0.16761,-0.43183 0.0183,-0.007 1.20509,-0.37724 1.23564,-0.56522 0.0394,-0.24266 -0.54672,-0.47517 -0.36508,-0.64083 0.28677,-0.26152 0.80158,0.0607 1.16122,-0.0852 0.32614,-0.13231 -0.0872,-1.07966 0.74206,-0.75115 -0.46475,-1.22792 -0.24346,-0.0481 0.59556,-0.80938 0.10997,-0.0998 -0.19658,-1.54425 1.02423,-1.76536 1.33211,-1.40899 -0.44801,0.66748 0.34967,-0.95828 0.0898,-0.18309 0.36477,-0.20799 0.48541,-0.37241 0.1039,-0.14162 0.057,-0.35857 0.1569,-0.50303 0.22635,-0.3273 0.69923,-0.4311 0.86856,-0.81907 0.0267,-0.36109 0.13438,-0.71378 0.15334,-1.07536 0.0101,-0.19303 -0.17512,-0.42581 -0.055,-0.57726 0.51984,-0.65556 1.65603,0.0136 0.93816,-1.37953 0.46944,-0.0714 1.46078,0.14393 1.2334,-0.70116 -0.0699,-0.25985 -0.43719,-0.4178 -0.42458,-0.68659 0.01,-0.21108 0.39712,-0.22234 0.4764,-0.41821 0.4575,-1.13028 -0.9265,-0.11288 0.56246,-0.93299 0.0643,-0.17016 0.19259,-0.3286 0.19275,-0.51048 1.9e-4,-0.21775 -0.31721,-0.44651 -0.19174,-0.62448 0.1697,-0.24071 0.66974,-0.0446 0.8352,-0.28824 0.12568,-0.18507 -0.21438,-0.41533 -0.2056,-0.63888 0.0712,-1.81267 0.6256,1.04213 0.0938,-1.12204 0.2727,-0.10879 0.61722,-0.11226 0.81811,-0.32637 0.0247,-0.0263 0.0597,-1.14484 0.0665,-1.17412 0.0428,-0.18364 0.1995,-0.33058 0.23053,-0.51657 0.17206,-1.03132 -0.46492,-0.29751 0.52199,-1.05136 -0.15184,-0.24538 -0.57656,-0.4742 -0.4555,-0.73614 0.13752,-0.29759 0.66496,-0.11804 0.93569,-0.30292 0.68103,-0.46508 -0.008,-0.73514 -0.064,-1.2355 -0.0345,-0.30757 0.41027,-0.81882 0.55853,-1.01981 0.0864,-0.13246 0.59603,-0.8386 0.54662,-1.05364 -0.0684,-0.29766 -0.43203,-0.46508 -0.51198,-0.75984 -0.16994,-0.62659 0.83719,-1.12032 1.15597,-1.43597 -0.0536,-0.24106 -0.28377,-0.95004 -0.0825,-1.22617 0.14811,-0.20323 0.51306,-0.17734 0.64491,-0.39147 0.22496,-0.36536 -0.27168,-1.41161 0.22995,-1.74606 0.10764,-0.16362 0.24884,-0.30956 0.32292,-0.49087 0.14092,-0.3449 -0.0564,-0.82718 0.19707,-1.10022 0.18895,-0.20351 0.63401,-0.10957 0.75052,-0.36165 0.8632,-1.86777 -1.56654,0.37083 0.24755,-1.09711 0.14043,-0.21858 0.77781,-1.25992 0.8331,-1.46588 0.0511,-0.19026 -0.11509,-0.41586 -0.0239,-0.59049 0.62892,-1.20494 0.62111,0.43344 0.48147,-0.9822 0.063,-0.19969 0.23828,-0.85191 0.41193,-0.99767 0.20312,-0.17048 0.56075,-0.11884 0.72532,-0.32678 0.11709,-0.14794 -0.11534,-0.40349 -0.019,-0.56569 0.85706,-1.44249 0.46063,0.60287 0.65233,-0.93423 0.14695,-0.12036 0.78546,-0.60682 0.87442,-0.81599 0.0733,-0.17226 -0.0446,-0.38811 0.0274,-0.56093 0.23358,-0.56092 1.00653,-0.61972 1.22206,-1.19776 0.29399,-0.33839 0.53819,-0.93864 0.87225,-1.21773 0.48522,-0.40537 1.20207,-0.28129 0.89719,-1.10771 0.42751,-0.0736 1.00276,-0.0114 1.2549,-0.47939 0.0682,-0.12651 -0.0649,-0.33162 0.0406,-0.42918 0.44648,-0.41286 1.32683,-0.009 1.38334,-0.83614 0.69127,-1.1537 -0.54409,0.71865 0.92268,-0.53607 0.10939,-0.0936 -0.0928,-0.32733 0.006,-0.43183 0.14012,-0.14789 0.43486,-0.0469 0.58143,-0.18839 0.78205,-0.75494 -1.87642,-0.41429 1.07814,-0.41007 0.12892,-0.0879 0.27674,-0.15308 0.38675,-0.26374 0.0694,-0.0698 0.3218,-0.5903 0.40903,-0.64155 0.44989,-0.26436 1.14214,-0.24369 1.60544,-0.50656 0.68514,-0.0287 1.10797,-0.13008 1.73557,-0.32153 0.17872,-0.0545 0.37866,-0.0321 0.55058,-0.1053 0.0966,-0.0411 0.11857,-0.20512 0.22195,-0.22361 0.26904,-0.0481 0.54604,0.025 0.81906,0.0375 1.17546,-0.0676 2.36779,-0.19877 3.53319,0.0107 0.84233,0.0641 0.36455,-8.4e-4 1.42435,0.25245 0.0887,0.0105 0.16897,-0.09 0.25718,-0.0757 0.82175,0.13322 1.274,0.31087 2.0801,0.44959 0.63004,0.15351 1.30892,0.26579 1.92296,0.47409 0.43772,0.14849 0.848,0.37769 1.29461,0.49677 0.0749,0.02 -0.0913,-0.1254 -0.13694,-0.18809 0.18929,0.0523 0.37858,0.10463 0.56787,0.15694 0.53138,-0.14043 0.0973,-0.0651 1.15187,0.27128 1.85274,0.59095 3.70261,1.19153 5.56406,1.75443 0.3632,0.10982 0.7466,0.14589 1.10751,0.26302 0.2754,0.0894 0.0596,0.99243 0.7888,0.36372 2.66258,0.71551 0.79961,-0.1004 1.30364,0.49635 0.0644,0.0763 0.13176,0.15863 0.22221,0.20099 0.5338,0.25004 1.17802,0.30086 1.58717,0.77088 0.14394,0.0524 1.77106,0.63867 1.90069,0.71154 0.23603,0.13269 0.0546,0.71537 0.58912,0.55928 0.98428,0.55197 0.51913,0.0916 1.00493,0.65348 1.16151,0.63137 2.06737,1.67544 3.21366,2.36412 0.52596,0.77065 0.81144,0.70068 1.45144,1.30185 0.10445,0.0981 0.0835,0.28509 0.18131,0.38984 0.18338,0.1964 0.5733,0.22968 0.64016,0.48994 0.0433,0.16856 -0.29571,0.18359 -0.44357,0.27538 0.15677,0.15031 1.3733,1.2913 1.42442,1.37641 0.12931,0.21526 -0.39006,0.54328 -0.21398,0.72232 0.30331,0.30841 0.75191,0.42789 1.12787,0.64184 -0.17656,0.96413 0.87927,0.84254 0.65068,1.37365 -0.0828,0.19242 -0.61094,0.0926 -0.55515,0.29451 0.63548,2.30021 0.99097,-0.38248 0.73203,1.04879 0.16211,0.29567 0.5032,1.19576 0.53598,1.52776 0.0155,0.1569 -0.11195,0.30215 -0.11091,0.45981 0.003,0.49337 0.23912,0.7205 0.49402,1.12655 -0.60612,0.81134 -0.18559,-0.002 -0.0892,0.99571 0.0163,0.16828 -0.17234,0.32985 -0.12391,0.49183 0.23244,0.77736 0.9272,0.75053 0.34231,1.71701 0.0485,0.28556 0.26497,3.01027 0.2261,3.06707 -0.15855,0.2317 -0.47948,0.29221 -0.71921,0.43832 0.66201,1.69488 -0.2844,1.03471 -0.2372,1.91475 0.0599,1.1169 0.92342,0.43844 -0.32465,1.85747 -0.0425,0.20186 -0.11455,0.3997 -0.12741,0.60557 -0.0137,0.21885 0.15801,0.46599 0.0486,0.65603 -0.13248,0.23017 -0.49971,0.22569 -0.67228,0.42755 -0.13074,0.15291 -0.1106,0.38754 -0.18453,0.57465 -0.34692,0.87791 -0.39934,0.26758 0.12668,1.31925 -1.21871,0.99178 -0.17043,-0.12223 -0.52559,1.1245 -0.0584,0.2051 -0.30964,0.3126 -0.38205,0.51319 -0.0698,0.19342 0.10834,0.46042 -0.0257,0.61637 -0.19073,0.22193 -0.56924,0.17684 -0.805,0.35017 -0.16073,0.11817 -0.22707,0.32807 -0.3406,0.4921 0.48186,1.57412 0.17449,-0.18521 -0.40804,1.03181 -0.0903,0.18864 0.22955,0.42589 0.1354,0.61264 -0.10757,0.21334 -0.51124,0.14327 -0.623,0.35445 -0.094,0.17772 0.0819,0.39372 0.1229,0.59057 -0.11942,0.13991 -0.23884,0.27981 -0.35827,0.41971 -0.20779,0.11734 -0.51836,0.13774 -0.62338,0.35202 -0.0912,0.18617 0.14328,0.39519 0.15579,0.60213 0.0499,0.82562 -0.92503,1.03376 -1.17123,1.75421 -1.71472,1.03946 0.31284,-0.36281 -0.69009,0.83245 -0.141,0.16804 -0.45928,0.14599 -0.5643,0.33858 -0.0884,0.16206 0.20922,0.41508 0.081,0.54783 -0.86981,0.90023 -1.05311,-0.44975 -0.67594,0.83504 -0.40226,0.3954 -1.10876,0.62063 -1.33971,1.10392 -0.0743,0.15554 0.0187,0.37322 -0.0863,0.50993 -0.91232,1.1874 -0.34441,-0.45491 -0.68935,0.80109 -0.42132,0.92066 0.0899,0.0327 -0.75481,0.7836 -0.12977,0.11535 -0.1885,0.2927 -0.2999,0.42586 -0.34564,0.41316 -0.88379,0.57027 -0.99505,1.13974 -0.37862,0.29257 -0.87197,0.60375 -1.04159,1.08404 -0.0519,0.14694 0.0497,0.3593 -0.0668,0.46272 -0.34641,0.30729 -0.98327,0.0945 -1.30246,0.48317 -0.008,0.15364 0.0661,0.33533 -0.0227,0.46093 -0.11446,0.16188 -0.34394,0.19733 -0.51439,0.29859 -0.16162,0.096 -0.30292,0.23529 -0.48178,0.29318 -0.27379,0.0886 -0.81791,-0.14717 -0.85213,0.13856 -0.0418,0.34901 0.66662,0.40263 0.74633,0.74498 0.0434,0.18643 -0.34174,0.17258 -0.51261,0.25887 -2.08258,0.53853 0.0817,-0.1967 -0.97444,0.54852 -0.17644,0.12449 -0.42155,0.11909 -0.60362,0.2352 -0.24819,0.15827 -0.29337,0.54393 -0.54707,0.6932 -0.19897,0.11707 -0.44487,0.12353 -0.66731,0.18529 -0.35015,0.624 -0.60463,0.52555 -1.18706,0.87674 -0.12148,0.0733 -0.17075,0.23164 -0.28429,0.31668 -0.43183,0.32346 -0.66989,0.28962 -1.21549,0.38897 -0.29337,0.22012 -0.66738,0.74947 -0.91521,0.90615 -0.31023,0.19613 -1.07968,0.43981 -1.42164,0.64167 -0.82818,0.88174 -0.26356,0.24169 -1.51428,0.55557 -0.12487,0.0313 -0.14074,0.23063 -0.25489,0.29016 -0.80878,0.42184 -0.40888,-0.1873 -0.72531,0.45536 -0.6946,0.51272 0.17903,-0.0557 -0.97216,0.31669 -0.12758,0.0413 -0.24712,0.12551 -0.32865,0.23196 -0.0641,0.0837 0.0191,0.27795 -0.0828,0.30521 -0.29884,0.08 -0.6183,-0.0232 -0.92745,-0.0348 -0.14612,0.0568 -0.29225,0.11354 -0.43838,0.17031 -0.1782,0.0343 -0.35522,0.0754 -0.53459,0.10296 -0.20373,0.0313 -0.44572,-0.0457 -0.61397,0.0733 -0.0934,0.0661 0.11946,0.27493 0.0269,0.34211 -0.25364,0.18408 -1.07062,-0.008 -1.29489,0.37655 -0.14358,0.032 -0.29513,0.0389 -0.43074,0.0959 -0.0888,0.0373 -0.13003,0.17087 -0.22588,0.18012 -0.28148,0.0272 -0.56401,-0.10965 -0.84488,-0.0768 -0.16412,0.0192 -0.51593,0.54015 -0.77202,0.43209 -0.59783,0.21745 -1.24736,0.0671 -1.80209,0.41038 0,0 -4.76146,-2.05591 -4.76146,-2.05591 z"
       inkscape:connector-curvature="0" />
  </g>
</svg>
