<?xml version="1.0" encoding="UTF-8" standalone="no"?>
<svg
   xmlns:dc="http://purl.org/dc/elements/1.1/"
   xmlns:cc="http://creativecommons.org/ns#"
   xmlns:rdf="http://www.w3.org/1999/02/22-rdf-syntax-ns#"
   xmlns:svg="http://www.w3.org/2000/svg"
   xmlns="http://www.w3.org/2000/svg"
   xmlns:sodipodi="http://sodipodi.sourceforge.net/DTD/sodipodi-0.dtd"
   xmlns:inkscape="http://www.inkscape.org/namespaces/inkscape"
   width="864.59613"
   height="751.33136"
   viewBox="0 0 0.8105589 0.70437319"
   id="svg2"
   version="1.1"
   inkscape:version="0.91 r13725"
   sodipodi:docname="logo.svg"
   inkscape:export-filename="/home/huguette/creations/web/blog/themes/cactus-dark/source/images/logo.png"
   inkscape:export-xdpi="126"
   inkscape:export-ydpi="126">
  <metadata
     id="metadata24">
    <rdf:RDF>
      <cc:Work
         rdf:about="">
        <dc:format>image/svg+xml</dc:format>
        <dc:type
           rdf:resource="http://purl.org/dc/dcmitype/StillImage" />
        <dc:title></dc:title>
      </cc:Work>
    </rdf:RDF>
  </metadata>
  <defs
     id="defs22" />
  <sodipodi:namedview
     pagecolor="#ffffff"
     bordercolor="#666666"
     borderopacity="1"
     objecttolerance="10"
     gridtolerance="10"
     guidetolerance="10"
     inkscape:pageopacity="0"
     inkscape:pageshadow="2"
     inkscape:window-width="1920"
     inkscape:window-height="1051"
     id="namedview20"
     showgrid="false"
     fit-margin-top="-0.3"
     fit-margin-left="0"
     fit-margin-right="0"
     fit-margin-bottom="0"
     inkscape:zoom="0.5763103"
     inkscape:cx="587.2215"
     inkscape:cy="485.82051"
     inkscape:window-x="0"
     inkscape:window-y="0"
     inkscape:window-maximized="1"
     inkscape:current-layer="svg2" />
  <path
     style="fill:none;stroke:#f52a26;stroke-width:0.00821016;stroke-linecap:round;stroke-linejoin:bevel;stroke-opacity:1"
     inkscape:connector-curvature="0"
     id="path6"
     d="M 0.00355838,0.35268789 0.2038637,0.00446627 0.60558478,0.00382382 0.80700053,0.35140403 0.60669828,0.69962462 0.20497515,0.70026809 Z" />
  <g
     id="g4178"
     style="fill:#cccccc;fill-opacity:1;stroke:#f9f9f9;stroke-opacity:1">
    <path
       d="M 0.24925357,0.66293752 C 0.20417979,0.60916097 0.15606826,0.55636759 0.12289921,0.49391598 0.09164826,0.43240444 0.0874385,0.36081184 0.09495285,0.29333972 0.11211208,0.22112316 0.15262307,0.15267197 0.21465904,0.11029831 0.25630199,0.07663665 0.30987637,0.06629185 0.35906549,0.04868517 c 0.043206,-9.0928e-4 0.0865525,-0.0012131 0.1297975,-0.0013957 0.0522843,0.0061699 0.0868327,0.05147052 0.12001406,0.08757162 0.0374465,0.0424506 0.0352041,0.10224522 0.0455869,0.15465889 0.006966,0.0577431 0.0106404,0.11617376 0.006344,0.17422267 -0.0101365,0.0470257 -0.0400759,0.0874208 -0.0704791,0.1236173 -0.005637,0.009628 -0.0473151,0.0418184 -0.0293,0.0194334 0.0397433,-0.031215 0.0683147,-0.0753385 0.0883413,-0.12124046 0.0134565,-0.0375984 0.005944,-0.0784122 0.006955,-0.1174176 C 0.65113782,0.30542405 0.64492992,0.24224277 0.62908226,0.18121254 0.61489613,0.14059278 0.58086809,0.11116961 0.55041045,0.08242071 0.52593391,0.0582069 0.4910787,0.0478231 0.45719435,0.05179374 0.42460719,0.05308992 0.39185789,0.05142633 0.35936618,0.05367797 0.30880391,0.0708721 0.2544896,0.08259107 0.21238585,0.11761459 0.1518,0.16065635 0.11314759,0.22979411 0.09894915,0.3018629 c -0.0072937,0.0747822 8.0049e-4,0.1547923 0.0439613,0.21850314 0.031956,0.0483732 0.0684563,0.0937251 0.10853626,0.13558053 l 0.003725,0.005521 -0.005918,0.001468 z"
       id="path8"
       inkscape:connector-curvature="0"
       style="stroke:#f9f9f9;stroke-width:0.00821016;stroke-linecap:round;stroke-linejoin:bevel;fill:#cccccc;fill-opacity:1;stroke-opacity:1" />
    <path
       d="m 0.40547957,0.44876113 c 0.001689,0.0292282 0.0269909,0.0512037 0.0414942,0.0753077 0.0364993,0.0454638 0.0629494,0.0984296 0.10448045,0.13989087 0.0299496,0.0358066 -0.0142477,-0.0177832 -0.0264737,-0.0279351 -0.0322659,-0.0380161 -0.0556054,-0.0825593 -0.0794713,-0.12606085 -0.003849,-0.017542 -0.0331044,-0.0561431 -0.0192087,-0.0607182 0.0175626,0.0546448 0.0485693,0.10336181 0.0785989,0.15179149 0.0157533,0.0292179 0.0469549,0.0467774 0.061802,0.07567 -0.0144653,0.0110735 -0.032073,-0.0318729 -0.0477831,-0.0411411 -0.0304618,-0.0447505 -0.06071,-0.0896549 -0.0936553,-0.13263308 -0.005474,-0.0131804 -0.039886,-0.0471232 -0.0197834,-0.0541727 z M 0.28799629,0.13640354 c -0.0339901,0.003315 -0.0681782,0.0215414 -0.0747597,0.0580407 -0.009784,0.03309 -0.0213875,0.0662806 -0.018087,0.10144679 0.001334,0.0381003 -0.007102,0.0825881 0.0229474,0.11246072 0.0228776,0.0224168 0.0560241,0.0332368 0.0872812,0.0251169 0.0219827,-0.0211689 0.045826,-0.043675 0.0571017,-0.0724506 0.007879,-0.0514777 0.005302,-0.10404633 0.004097,-0.15590272 0.001108,-0.039025 -0.0312448,-0.061997 -0.0675358,-0.0620103 -0.0147732,0.002487 -0.0426292,-0.0134133 -0.014258,-0.007287 0.0288823,0.006363 0.0708711,0.00453 0.0803908,0.0398583 0.0140753,0.0426549 0.005908,0.0883249 0.007553,0.13237344 6.4348e-4,0.0348049 -0.003812,0.0713955 -0.0315301,0.0957243 -0.0166943,0.0223624 -0.0376148,0.0448018 -0.068288,0.0359502 -0.0331403,-0.001782 -0.0649321,-0.0257306 -0.0767003,-0.0567384 -0.0118401,-0.0341471 -0.003828,-0.0711595 -0.006186,-0.10652683 -1.8986e-4,-0.0352339 0.0140979,-0.0689428 0.0244663,-0.10184087 0.012774,-0.0275369 0.0471037,-0.0453611 0.0735086,-0.0382142 z"
       id="path10"
       inkscape:connector-curvature="0"
       style="stroke:#f9f9f9;stroke-width:0.00821016;stroke-linecap:round;stroke-linejoin:bevel;fill:#cccccc;fill-opacity:1;stroke-opacity:1" />
    <path
       d="m 0.35381406,0.22866932 c -0.004943,0.0239973 -0.0467127,-0.0137674 -0.0514264,0.0219416 -0.006281,0.0315434 -0.0205069,0.0721981 0.0253212,0.0762026 0.0176662,0.005392 0.0466419,0.0189901 0.0437294,-0.009134 0.0172721,0.003805 -0.00479,0.0328837 -0.0209708,0.0208107 -0.0221941,-0.00906 -0.0692219,-0.0103879 -0.062,-0.0438864 0.006749,-0.0280397 0.00527,-0.0771139 0.0484215,-0.0646601 0.0266676,0.006468 -0.003081,0.004805 0.0169252,-0.001276 z"
       id="path12"
       inkscape:connector-curvature="0"
       style="stroke:#f9f9f9;stroke-width:0.00821016;stroke-linecap:round;stroke-linejoin:bevel;fill:#cccccc;fill-opacity:1;stroke-opacity:1" />
    <path
       d="m 0.33423796,0.24705802 c -0.0309061,0.001816 -0.0242508,0.0441635 -0.0265209,0.0659717 -0.008711,0.0321428 -0.00996,-0.030275 5.7882e-4,-0.0408373 0.005064,-0.0265599 0.03008,-0.0267107 0.0222854,0.002227 0.001094,0.012073 -0.004146,0.0620688 -0.009077,0.028831 -9.2365e-4,-0.0249969 0.0169201,-0.0255162 0.0115589,-2.7401e-4 -0.003163,0.030353 -0.005272,-0.0152524 0.0117857,-0.00841 -0.003264,0.0115117 -0.021564,0.0363761 -0.0176744,0.008408 -0.002815,-0.0224907 0.009103,-0.0221038 8.928e-5,3.284e-4 -0.0105737,0.0315516 0.002262,-0.0357142 -0.003612,-0.0492404 -0.003394,0.00837 -0.0245792,0.0437088 -0.0170484,0.0658198 -0.01039,0.007456 -0.001591,-0.0393164 -6.1577e-4,-0.052545 0.001039,-0.0112623 0.0176457,-0.0360631 0.0282501,-0.020276 z m 0.16367262,-0.0766049 c -0.036489,0.0106116 -0.0637601,0.0407121 -0.074107,0.0767999 -0.0132112,0.0298501 -0.0245001,0.0615249 -0.0205459,0.0946939 0.004179,0.0322516 0.0342261,0.0555109 0.0642681,0.0634953 0.0215055,0.002717 0.040042,0.0121921 0.0385416,-0.0163177 0.0141574,-0.03133 0.0394313,-0.0564377 0.0513669,-0.0891418 0.0155244,-0.0334154 0.0173542,-0.0714048 0.0162705,-0.1076352 -0.0144653,-0.0301723 -0.0596263,-0.0366584 -0.0841213,-0.0248388 -0.005727,-0.0152452 0.0419847,-0.0111863 0.0566501,-0.004593 0.0376918,0.006002 0.036684,0.0461206 0.0318626,0.0750552 -0.001988,0.0525933 -0.0315219,0.0980858 -0.0606628,0.13983647 -0.0078,0.0208179 -0.0107245,0.0467261 -0.0408425,0.0339562 -0.0343462,-0.003431 -0.0653303,-0.0269221 -0.0779863,-0.059066 -0.005714,-0.0333302 0.001945,-0.0663894 0.0160273,-0.0966952 0.0105603,-0.0326272 0.0269365,-0.0662611 0.0600409,-0.0812005 0.006791,-9.7188e-4 0.0181383,-0.0138372 0.0232348,-0.004347 z"
       id="path14"
       inkscape:connector-curvature="0"
       style="stroke:#f9f9f9;stroke-width:0.00821016;stroke-linecap:round;stroke-linejoin:bevel;fill:#cccccc;fill-opacity:1;stroke-opacity:1" />
    <path
       d="m 0.56866164,0.25247673 c -0.0306752,-0.0159318 -0.0702687,-0.001726 -0.0658865,0.0374312 -0.003114,0.022814 -0.007832,0.057468 0.0256773,0.0485672 0.0139244,0.009621 -0.0503283,0.00846 -0.0329207,-0.0195946 0.001544,-0.0274353 -0.002169,-0.0785815 0.0374127,-0.0767291 0.006219,-3.2328e-4 0.0521242,0.002122 0.0357173,0.0103274 z"
       id="path16"
       inkscape:connector-curvature="0"
       style="stroke:#f9f9f9;stroke-width:0.00821016;stroke-linecap:round;stroke-linejoin:bevel;fill:#cccccc;fill-opacity:1;stroke-opacity:1" />
    <path
       d="m 0.51140911,0.25339627 c -0.009421,0.0121531 -3.5406e-4,0.0619272 -0.007712,0.0523151 0.0103859,-0.0127175 0.007309,-0.06141 0.0226457,-0.0499588 -0.002022,0.0242662 -0.004499,0.0485354 -0.005107,0.0729021 -0.007157,-0.0136022 0.0130695,-0.0466994 0.0169971,-0.0653734 0.0106014,0.0142426 0.00294,0.0638032 -0.0115579,0.0703015 0.00528,-0.0263916 0.008167,-0.0559399 0.0190938,-0.0802266 0.005744,0.0169437 -0.0110868,0.0505541 -0.0131239,0.0740721 -0.0121593,0.0195443 0.005686,-0.0299342 0.004275,-0.0402667 -0.006539,-0.0149117 0.0106055,-0.0342261 0.001507,-0.0101498 -0.003199,0.0115732 -0.0141851,0.0602113 -0.0228294,0.045903 0.002679,-0.017659 0.002042,-0.0663997 0.007492,-0.0658352 -0.005733,0.014221 -0.00671,0.056958 -0.022383,0.0515598 0.003505,-0.0145956 -0.007372,-0.0547464 0.0107019,-0.0552421 z m -0.11879896,0.2086725 c 6.568e-5,7.1121e-4 7.902e-5,0.00143 2.0012e-4,0.002133 6.3013e-4,0.003664 0.001965,0.007243 0.00311,0.0107615 0.001558,0.004793 0.001804,0.005518 0.003426,0.010431 0.003913,0.011135 0.008504,0.0220135 0.012933,0.0329505 0.003559,0.0084 0.006576,0.0170125 0.008832,0.0258497 0.00194,0.0107522 0.003608,0.0215476 0.005686,0.0322782 0.001821,0.0119047 0.004423,0.0236309 0.00782,0.0351764 0.003069,0.009514 0.006307,0.0189716 0.00929,0.0285129 0.001632,0.004497 0.003238,0.009059 0.005411,0.0133313 0.002658,0.004813 0.003284,0.01043 0.004313,0.0157614 5.3366e-4,0.002679 0.001205,0.005326 0.001849,0.007978 3.0583e-4,0.001262 4.7003e-4,0.002381 0.001221,0.003445 0.001264,0.001052 0.001607,0.002668 0.001888,0.004208 1.7857e-4,0.001014 1.8473e-4,0.002044 2.0525e-4,0.003069 9.031e-5,0.0101046 -0.006987,-0.001985 -0.007245,-0.002377 -4.3821e-4,-6.6195e-4 -8.9285e-4,-0.001314 -0.001337,-0.00197 l -0.001724,-0.002609 c -0.005033,-0.007022 -0.007864,-0.0150831 -0.010275,-0.0232861 -0.001611,-0.006069 -0.002991,-0.0121993 -0.004232,-0.0183548 -8.241e-4,-0.003882 -0.002579,-0.006999 -0.004734,-0.0102586 -0.002482,-0.003961 -0.005259,-0.007707 -0.007582,-0.0117713 -0.002314,-0.004118 -0.003469,-0.008741 -0.005357,-0.01305 -3.2019e-4,-7.1326e-4 -6.5476e-4,-0.00142 -9.5853e-4,-0.002141 -9.0928e-4,-0.002161 -6.6297e-4,-0.001902 -0.001622,-0.003856 -7.8612e-4,-0.001605 -0.001695,-0.003122 -0.00246,-0.004743 -0.001173,-0.003091 -0.002689,-0.006072 -0.003715,-0.00922 -6.055e-4,-0.001863 -0.001075,-0.003768 -0.001634,-0.005647 -0.002438,-0.008112 -0.00516,-0.016133 -0.008234,-0.024025 -0.002439,-0.005727 -0.005316,-0.011253 -0.008477,-0.0166102 -2.6273e-4,-4.259e-4 -5.5727e-4,-8.3538e-4 -7.9023e-4,-0.00128 -0.00107,-0.002026 -0.001196,-0.002761 -0.002188,-0.004998 -0.001457,-0.003286 -0.002968,-0.006539 -0.004382,-0.009846 -0.0017,-0.003828 -0.003713,-0.007488 -0.005051,-0.0114634 -9.0825e-4,-0.004598 -0.002295,-0.009067 -0.003871,-0.013477 -0.001533,-0.004236 -0.003004,-0.008495 -0.004259,-0.0128232 -4.105e-5,-2.5657e-4 0.005954,-0.001249 0.005996,-9.9549e-4 0.001157,0.004265 0.002561,0.008456 0.004069,0.0126077 0.001576,0.004433 0.003054,0.008912 0.004062,0.0135119 0.001283,0.003879 0.003294,0.007444 0.004834,0.0112202 0.00224,0.005316 0.00454,0.0106404 0.007348,0.0156814 0.003115,0.00557 0.005973,0.0112859 0.008432,0.0171798 0.003087,0.007986 0.005843,0.0160888 0.008387,0.0242661 0.001509,0.004865 0.003066,0.009698 0.005306,0.0142918 0.001806,0.003586 0.00363,0.007145 0.005045,0.0109144 0.001775,0.004204 0.002986,0.00866 0.005268,0.0126334 0.002323,0.003984 0.005068,0.007676 0.007512,0.0115835 0.002337,0.00361 0.004204,0.007354 0.005049,0.0116143 0.001157,0.006057 0.002488,0.0120833 0.004043,0.0180521 0.002316,0.007876 0.005121,0.0155542 0.0100698,0.0222157 0.00144,0.002114 0.003266,0.00429 0.004235,0.006686 2.1757e-4,5.3879e-4 9.9137e-4,0.001472 4.5156e-4,0.001686 -0.001919,7.6149e-4 -0.006452,-0.001472 -0.006158,6.6091e-4 1.847e-5,-7.9638e-4 -1.232e-5,-0.001598 -1.406e-4,-0.002386 -2.4323e-4,-0.001235 -9.3391e-4,-0.002088 -0.001636,-0.003125 -0.001758,-0.003933 -0.001989,-0.008385 -0.003112,-0.0125102 -9.8316e-4,-0.005037 -0.001714,-0.0102647 -0.004233,-0.0148111 -0.002127,-0.0045 -0.003931,-0.009173 -0.005422,-0.0139193 -0.002841,-0.009594 -0.006122,-0.0190445 -0.009183,-0.0285683 -0.003403,-0.0116554 -0.00586,-0.023516 -0.007756,-0.0355089 -0.002089,-0.0106629 -0.00389,-0.0213731 -0.005881,-0.0320504 -0.002212,-0.008682 -0.005138,-0.0171541 -0.008621,-0.0254104 -0.004421,-0.011015 -0.009006,-0.0219694 -0.0129618,-0.0331639 -0.00117,-0.003477 -0.00235,-0.006953 -0.003514,-0.010432 -0.00126,-0.003768 -0.002651,-0.007564 -0.003364,-0.011487 -1.5086e-4,-8.3128e-4 -1.9499e-4,-0.001678 -2.9351e-4,-0.002516 0,-2.5862e-4 0.006109,-2.5862e-4 0.006109,0 z"
       id="path18"
       inkscape:connector-curvature="0"
       style="stroke:#f9f9f9;stroke-width:0.00821016;stroke-linecap:round;stroke-linejoin:bevel;fill:#cccccc;fill-opacity:1;stroke-opacity:1" />
  </g>
</svg>
